<?xml version="1.0" standalone="no"?>
<!DOCTYPE svg PUBLIC "-//W3C//DTD SVG 20010904//EN"
 "http://www.w3.org/TR/2001/REC-SVG-20010904/DTD/svg10.dtd">
<svg version="1.0" xmlns="http://www.w3.org/2000/svg"
 width="2700.000000pt" height="2700.000000pt" viewBox="0 0 2700.000000 2700.000000"
 preserveAspectRatio="xMidYMid meet">
<metadata>
Created by potrace 1.11, written by Peter Selinger 2001-2013
</metadata>
<g transform="translate(0.000000,2700.000000) scale(0.100000,-0.100000)"
fill="#000000" stroke="none">
<path d="M15155 26573 c-27 -7 -56 -14 -62 -15 -7 -1 -15 -10 -19 -20 -3 -10
-9 -18 -14 -18 -5 0 -27 -18 -49 -40 -22 -22 -43 -40 -46 -40 -4 0 -13 -6 -20
-12 -25 -22 -38 -33 -105 -78 -36 -25 -69 -49 -75 -53 -27 -22 -225 -157 -230
-157 -4 0 -21 -11 -39 -25 -18 -14 -38 -25 -44 -25 -6 0 -12 -4 -14 -9 -3 -10
-60 -46 -100 -63 -16 -7 -28 -15 -28 -19 0 -4 -26 -22 -57 -39 -32 -18 -60
-36 -63 -39 -3 -3 -30 -19 -60 -35 -30 -17 -61 -36 -68 -43 -7 -7 -20 -13 -28
-13 -8 0 -14 -3 -14 -8 0 -4 -21 -18 -47 -32 -50 -26 -109 -62 -130 -80 -7 -5
-15 -10 -18 -10 -3 0 -32 -17 -63 -39 -31 -21 -60 -39 -65 -39 -4 -1 -17 -11
-29 -22 -12 -11 -27 -20 -34 -20 -7 0 -14 -3 -16 -7 -1 -5 -34 -30 -71 -58
-93 -69 -179 -136 -198 -157 -9 -10 -21 -18 -27 -18 -7 0 -19 -11 -28 -25 -9
-14 -19 -24 -21 -22 -4 4 -44 -27 -84 -65 -11 -10 -21 -18 -24 -18 -5 0 -45
-33 -71 -58 -8 -7 -14 -11 -14 -8 0 3 -8 -1 -17 -10 -34 -30 -121 -94 -128
-94 -3 0 -13 -6 -20 -12 -30 -27 -44 -38 -50 -38 -10 0 -383 -250 -396 -266
-6 -8 -16 -14 -21 -14 -5 0 -15 -6 -23 -12 -7 -7 -33 -29 -57 -48 -23 -19 -60
-51 -80 -71 -21 -20 -38 -34 -38 -30 0 3 -9 -7 -19 -22 -10 -16 -21 -28 -25
-28 -3 1 -5 0 -5 -1 1 -2 -19 -25 -45 -51 -25 -27 -46 -53 -46 -59 0 -6 -3 -9
-6 -5 -4 3 -24 -17 -46 -46 -22 -29 -56 -73 -76 -99 -20 -27 -40 -48 -45 -48
-4 0 -5 -4 -2 -10 3 -5 1 -10 -4 -10 -6 0 -11 -7 -11 -15 0 -8 -4 -15 -8 -15
-5 0 -14 -10 -21 -22 -6 -13 -20 -36 -31 -53 -60 -92 -100 -208 -77 -220 7 -3
1 -3 -13 1 -73 16 -108 16 -156 -4 -27 -11 -68 -25 -91 -31 -24 -7 -43 -16
-43 -21 0 -6 -9 -10 -20 -10 -11 0 -20 -5 -20 -11 0 -5 -4 -8 -9 -5 -10 7 -24
-6 -151 -143 -47 -50 -93 -91 -103 -91 -11 0 -24 -16 -37 -44 -23 -55 -42 -77
-105 -125 -75 -58 -115 -98 -178 -181 -31 -41 -61 -80 -65 -86 -5 -6 -31 -44
-58 -85 -27 -41 -52 -76 -55 -79 -5 -5 -72 -140 -75 -150 0 -3 -11 -27 -23
-55 -35 -78 -45 -155 -24 -196 18 -36 82 -89 116 -96 22 -5 26 -9 21 -26 -4
-12 -13 -27 -20 -35 -8 -7 -14 -20 -14 -28 0 -8 -4 -14 -9 -14 -5 0 -12 -11
-15 -25 -4 -14 -11 -25 -16 -25 -6 0 -10 -4 -10 -10 0 -5 -13 -39 -30 -75 -16
-36 -30 -67 -30 -69 0 -2 -8 -21 -17 -42 -9 -22 -17 -43 -19 -49 -2 -12 -51
-138 -69 -180 -8 -16 -17 -42 -20 -57 -4 -16 -12 -28 -18 -28 -6 0 -8 -3 -4
-6 3 -3 -1 -25 -10 -47 -8 -23 -16 -46 -17 -52 -2 -5 -8 -23 -14 -38 -7 -16
-12 -35 -12 -43 0 -8 -4 -14 -8 -14 -4 0 -9 -8 -10 -17 -3 -32 -8 -48 -20 -70
-15 -28 -15 -36 1 -27 9 6 9 5 0 -7 -7 -9 -15 -26 -17 -40 -3 -13 -5 -24 -6
-24 -1 0 -3 -16 -6 -35 -2 -19 -7 -42 -10 -50 -4 -8 -8 -28 -10 -44 -1 -16 -6
-41 -10 -55 -4 -14 -8 -35 -10 -46 -3 -24 -12 -60 -14 -60 -1 0 -3 -7 -5 -15
-10 -48 -16 -71 -29 -125 -8 -33 -12 -63 -10 -67 3 -5 2 -8 -3 -8 -8 0 -9 -7
-16 -128 -2 -39 -6 -75 -10 -78 -3 -3 -2 -17 4 -31 5 -15 5 -22 0 -18 -6 3 -6
-6 -1 -25 5 -16 6 -30 2 -30 -4 0 -7 -16 -7 -35 0 -19 4 -35 8 -35 4 0 4 -8
-1 -17 -9 -20 -8 -55 2 -72 4 -6 4 -11 -1 -11 -4 0 -8 -22 -8 -50 0 -27 3 -50
6 -50 3 0 6 -7 6 -15 0 -8 -3 -15 -6 -15 -10 0 -6 -173 3 -189 6 -9 5 -12 -1
-8 -11 7 -10 -165 2 -253 3 -25 7 -61 10 -80 2 -19 6 -52 9 -72 4 -21 8 -55
12 -75 6 -46 12 -76 14 -83 1 -3 2 -9 1 -14 -1 -5 1 -16 5 -25 4 -9 8 -27 10
-41 3 -27 20 -87 37 -133 5 -15 7 -30 3 -34 -3 -3 -1 -12 4 -18 6 -7 17 -39
26 -71 8 -32 19 -63 24 -69 6 -7 5 -16 -2 -23 -8 -8 -8 -12 -1 -12 9 0 25 -48
39 -114 2 -11 7 -22 12 -25 4 -3 7 -13 7 -21 -1 -8 7 -34 17 -58 10 -24 18
-52 18 -63 0 -10 5 -19 11 -19 5 0 7 -5 4 -10 -4 -6 0 -22 9 -35 9 -13 16 -33
16 -44 0 -11 5 -23 10 -26 6 -3 10 -15 10 -26 0 -10 4 -19 8 -19 5 0 17 -25
28 -56 10 -31 25 -59 32 -61 6 -3 12 -9 12 -14 0 -12 42 -103 51 -109 3 -3 12
-22 20 -42 7 -21 16 -38 20 -38 4 0 9 -10 13 -22 5 -20 78 -141 103 -173 17
-22 43 -65 39 -65 -3 0 6 -12 20 -27 15 -16 33 -41 41 -58 9 -16 21 -34 27
-41 6 -7 22 -27 36 -45 14 -18 45 -54 70 -80 25 -26 52 -56 61 -67 9 -11 21
-21 25 -23 5 -2 26 -23 47 -47 20 -23 37 -39 37 -36 0 3 12 -9 27 -28 15 -18
36 -39 46 -47 11 -7 39 -33 63 -57 24 -24 50 -44 57 -44 8 0 20 -11 27 -25 7
-13 17 -22 22 -19 4 3 8 1 8 -5 0 -5 8 -12 18 -15 9 -3 28 -16 42 -29 14 -12
48 -38 75 -56 28 -19 55 -39 60 -45 6 -6 29 -23 53 -39 23 -15 42 -32 42 -37
0 -6 9 -10 20 -10 11 0 20 -4 20 -10 0 -5 7 -10 15 -10 8 0 15 -4 15 -10 0 -5
5 -10 11 -10 6 0 25 -11 43 -25 18 -14 36 -22 39 -18 4 3 7 2 7 -4 0 -10 49
-38 63 -35 4 1 7 -2 7 -6 0 -4 17 -14 38 -21 20 -8 49 -22 63 -32 14 -10 28
-16 31 -13 3 2 26 -4 52 -15 25 -11 48 -21 51 -21 3 0 10 -2 17 -4 7 -2 34
-10 61 -17 26 -7 47 -16 47 -19 0 -3 14 -7 31 -8 18 -1 37 -6 43 -9 6 -4 17
-9 24 -10 6 -2 18 -4 25 -6 6 -1 18 -6 25 -10 6 -5 12 -6 12 -3 0 3 24 -3 54
-14 30 -10 57 -16 60 -13 3 4 6 1 6 -5 0 -6 7 -9 15 -6 8 3 20 2 27 -2 15 -10
27 -12 88 -20 25 -3 50 -9 55 -13 6 -4 34 -9 64 -10 29 -2 63 -5 75 -8 22 -5
115 -11 231 -15 39 -2 73 -7 77 -13 5 -6 8 -6 8 1 0 7 11 9 28 7 43 -7 261
-12 604 -14 175 -2 316 -5 314 -7 -2 -2 -12 -5 -23 -7 -10 -2 -18 -4 -18 -5 0
-2 -37 -9 -62 -12 -7 -1 -13 -5 -13 -10 0 -5 -4 -7 -8 -4 -5 3 -36 -3 -70 -14
-34 -10 -62 -16 -62 -13 0 3 -7 -1 -17 -8 -9 -8 -18 -13 -20 -11 -5 5 -114
-26 -135 -38 -10 -6 -27 -10 -38 -10 -11 0 -20 -5 -20 -11 0 -5 -5 -7 -11 -3
-6 3 -14 2 -18 -4 -4 -7 -16 -13 -26 -15 -11 -2 -38 -12 -60 -22 -22 -9 -44
-18 -50 -19 -5 -1 -26 -11 -45 -21 -19 -11 -38 -18 -42 -17 -5 1 -8 -3 -8 -8
0 -6 -10 -15 -22 -20 -13 -6 -51 -25 -86 -44 -34 -18 -65 -30 -67 -25 -5 7
-13 9 -61 10 -12 0 -69 -20 -125 -45 -96 -41 -157 -67 -169 -71 -5 -2 -32 -14
-152 -69 -148 -67 -179 -81 -273 -118 -55 -22 -109 -44 -120 -49 -139 -62
-245 -106 -245 -101 0 4 -4 2 -8 -3 -9 -14 -95 -51 -102 -45 -3 3 -5 19 -5 35
-1 42 -15 95 -26 95 -5 0 -9 7 -9 15 0 8 -4 15 -10 15 -5 0 -10 6 -10 14 0 8
-7 16 -15 20 -8 3 -14 10 -13 15 4 15 -165 173 -209 196 -21 11 -41 24 -44 28
-13 18 -218 83 -324 103 -11 2 -38 7 -60 11 -63 11 -395 4 -395 -9 0 -4 -8 -7
-17 -6 -10 0 -27 -2 -38 -5 -11 -3 -33 -8 -50 -12 -16 -4 -34 -10 -40 -13 -5
-4 -16 -7 -25 -8 -28 -3 -205 -67 -208 -76 -2 -4 -7 -6 -12 -3 -4 3 -19 -1
-31 -8 -89 -48 -152 -103 -274 -242 -33 -37 -68 -75 -77 -84 -10 -8 -18 -21
-18 -27 0 -7 -4 -14 -10 -16 -8 -3 -61 -70 -100 -128 -8 -13 -43 -58 -77 -100
-55 -70 -141 -210 -128 -210 2 0 0 -12 -6 -27 -6 -16 -13 -46 -17 -68 -7 -47
-5 -333 2 -389 10 -75 21 -135 31 -166 3 -10 8 -28 10 -40 2 -12 13 -38 25
-57 11 -19 20 -41 20 -49 0 -8 5 -14 10 -14 6 0 10 -7 10 -15 0 -8 5 -15 10
-15 6 0 10 -7 10 -15 0 -8 5 -15 10 -15 6 0 10 -5 10 -12 0 -6 34 -44 75 -84
41 -40 75 -70 75 -69 0 2 15 -10 33 -28 33 -33 123 -98 141 -102 6 -1 34 -12
61 -24 75 -34 153 -60 159 -53 3 3 6 0 6 -6 0 -7 -4 -12 -8 -12 -5 0 -20 -9
-33 -21 -51 -44 -161 -111 -301 -183 -80 -41 -200 -109 -267 -151 -66 -42
-126 -78 -133 -79 -7 -1 -23 -7 -34 -14 -23 -12 -73 -24 -114 -26 -14 0 -61 9
-105 21 -44 12 -101 25 -127 28 -42 5 -57 15 -120 76 -40 38 -76 69 -80 69 -4
0 -18 11 -31 24 -14 14 -27 23 -29 20 -3 -2 -17 7 -31 20 -14 13 -28 21 -31
18 -3 -3 -6 -1 -6 5 0 5 -12 15 -27 22 -37 17 -267 172 -271 182 -2 5 -8 9
-14 9 -10 0 -75 46 -93 65 -5 6 -26 22 -45 35 -19 13 -40 31 -47 40 -7 8 -13
12 -13 8 0 -4 -10 3 -23 15 -13 12 -37 33 -54 47 -78 65 -163 141 -223 198
-36 34 -68 62 -72 62 -5 0 -8 6 -8 13 0 8 -11 20 -25 27 -14 7 -25 16 -25 19
0 6 -113 124 -438 456 l-133 136 23 26 c13 14 34 35 47 46 13 12 37 42 54 67
17 25 36 50 42 57 24 29 30 39 33 58 2 11 10 33 18 49 7 16 11 32 8 37 -3 5
-1 9 4 9 10 0 11 9 16 73 1 23 -1 50 -6 59 -4 9 -4 19 1 22 5 3 7 23 5 43 -2
21 -6 61 -8 88 -9 102 -21 165 -34 191 -21 41 -33 71 -36 86 -1 10 -10 25 -19
36 -9 10 -17 24 -17 30 0 7 -4 12 -10 12 -5 0 -16 12 -24 28 -8 15 -29 43 -46
62 -17 19 -47 54 -68 78 -58 67 -162 175 -162 168 0 -5 -27 14 -55 42 -8 6
-18 12 -24 12 -6 0 -11 4 -11 8 0 5 -18 17 -40 27 -22 10 -40 22 -40 27 0 4
-6 8 -13 8 -7 0 -37 16 -67 35 -30 19 -63 35 -72 35 -10 0 -18 5 -18 10 0 6
-4 10 -9 10 -5 0 -26 7 -47 16 -22 9 -40 16 -41 16 -2 0 -17 4 -35 9 -74 23
-128 30 -241 33 -53 2 -97 -1 -97 -6 0 -5 -8 -5 -17 0 -19 8 -158 8 -183 -1
-8 -3 -42 -9 -75 -12 -86 -9 -108 -12 -125 -18 -46 -17 -113 -37 -125 -37 -8
0 -15 -3 -15 -8 0 -4 -25 -18 -55 -31 -30 -13 -52 -28 -49 -32 3 -5 -4 -9 -16
-9 -11 0 -23 -7 -26 -15 -4 -8 -9 -13 -13 -10 -7 4 -93 -54 -134 -90 -10 -9
-32 -25 -50 -35 -18 -11 -28 -20 -23 -20 5 0 -4 -10 -20 -22 -16 -13 -38 -31
-48 -40 -11 -10 -23 -18 -28 -18 -4 0 -7 -3 -5 -8 1 -4 -16 -25 -38 -48 -57
-58 -106 -114 -100 -114 3 0 -4 -9 -15 -20 -11 -11 -20 -25 -20 -31 0 -5 -4
-7 -10 -4 -6 3 -10 1 -10 -5 0 -10 -41 -79 -90 -150 -9 -14 -20 -35 -24 -48
-4 -12 -11 -20 -15 -18 -4 3 -16 -15 -27 -40 -10 -24 -22 -44 -26 -44 -5 0 -7
-3 -6 -7 1 -5 -4 -19 -12 -33 -16 -27 -21 -39 -74 -182 -19 -54 -33 -98 -30
-98 4 0 2 -6 -4 -13 -11 -13 -10 -499 1 -527 4 -8 8 -33 11 -55 2 -22 9 -52
15 -67 6 -16 9 -28 6 -28 -2 0 2 -18 10 -40 8 -22 14 -43 14 -45 -1 -12 35
-105 41 -105 3 0 6 -10 7 -22 1 -11 6 -24 11 -27 5 -3 26 -42 46 -86 21 -44
44 -84 52 -88 8 -4 14 -13 14 -20 0 -16 107 -127 114 -119 3 3 6 0 6 -6 0 -7
6 -12 14 -12 8 0 21 -6 28 -14 14 -14 164 -68 253 -91 103 -27 274 -39 287
-20 5 7 8 6 8 -1 0 -12 60 -11 79 0 6 4 11 3 11 -1 0 -5 9 -9 20 -9 11 0 20 3
20 6 0 3 12 7 27 8 16 1 39 5 53 8 14 3 36 8 50 11 14 3 30 9 35 13 6 4 26 11
45 15 19 4 37 11 40 14 3 4 28 18 55 31 28 13 59 32 70 42 19 18 20 18 28 -4
5 -13 10 -28 11 -34 1 -7 6 -18 12 -25 5 -8 20 -34 34 -59 13 -25 45 -77 72
-117 26 -40 48 -76 48 -82 0 -5 3 -11 8 -13 4 -1 21 -23 37 -48 17 -25 36 -51
43 -58 6 -7 12 -17 12 -20 0 -4 10 -18 23 -32 12 -14 33 -38 45 -55 37 -49 94
-116 134 -157 20 -21 35 -38 33 -38 -2 0 49 -54 114 -120 65 -66 116 -120 113
-120 -2 0 8 -10 24 -22 16 -13 64 -57 106 -99 43 -42 78 -76 78 -75 0 1 33
-30 74 -69 97 -91 245 -229 272 -252 23 -20 185 -168 244 -223 21 -19 68 -62
106 -95 37 -33 91 -81 118 -107 28 -26 54 -48 58 -48 3 0 22 -15 41 -32 19
-18 54 -49 77 -68 23 -19 50 -42 60 -50 10 -8 32 -26 50 -40 18 -14 39 -31 46
-37 7 -7 16 -13 21 -13 4 0 14 -9 21 -20 7 -11 19 -20 26 -20 8 0 16 -4 18 -8
3 -8 80 -67 158 -121 113 -79 251 -171 257 -171 3 0 20 -10 37 -23 17 -13 56
-37 86 -52 30 -16 67 -38 83 -48 15 -10 27 -15 27 -12 0 4 12 -3 26 -14 15
-11 30 -18 35 -15 5 3 9 0 9 -6 0 -6 4 -9 9 -6 4 3 17 -1 27 -9 10 -8 30 -15
45 -15 14 0 29 -4 35 -9 11 -12 142 -23 148 -13 3 5 20 9 40 10 24 2 38 -3 45
-15 6 -10 11 -15 11 -12 0 4 19 2 43 -3 66 -15 91 -17 105 -6 6 6 12 8 12 5 0
-3 15 -1 33 4 17 6 37 12 42 13 34 10 170 68 179 77 6 5 17 9 25 9 8 0 22 7
31 15 10 9 27 17 39 20 12 2 28 11 37 19 8 9 24 16 35 16 10 0 19 4 19 9 0 5
15 14 33 22 17 7 34 16 37 19 3 4 29 19 58 35 28 15 52 32 52 37 0 5 4 7 9 4
5 -3 20 3 34 14 14 11 29 20 34 20 5 0 18 8 29 18 10 9 45 31 77 47 32 17 66
35 75 40 9 6 40 23 67 38 28 15 57 31 65 37 29 18 230 129 282 155 95 47 113
58 116 67 2 4 8 6 13 2 5 -3 9 0 9 6 0 6 4 9 9 5 5 -3 12 -1 16 5 3 5 32 22
63 37 31 16 63 34 70 40 7 7 24 16 38 19 13 3 24 10 24 16 0 5 4 7 9 3 6 -3
14 2 19 11 5 9 11 14 14 12 2 -1 48 22 102 52 53 30 105 60 115 65 11 6 26 17
35 24 9 7 16 10 16 5 0 -5 4 -4 8 1 4 6 62 46 130 90 67 44 122 83 122 87 0 5
6 8 13 8 7 0 24 10 38 23 14 12 34 27 46 34 20 11 20 10 16 -85 -2 -53 -5
-102 -8 -109 -2 -7 0 -15 4 -17 4 -3 2 -36 -6 -73 -17 -87 -20 -106 -28 -173
-4 -30 -9 -58 -11 -62 -3 -5 1 -8 8 -8 8 0 9 -3 3 -8 -14 -10 -14 -255 0 -264
6 -5 6 -8 0 -8 -5 0 -9 -17 -8 -37 1 -21 2 -38 3 -38 1 0 3 -25 4 -55 1 -30
10 -82 20 -114 15 -52 28 -70 103 -142 46 -46 93 -86 104 -89 19 -6 26 -39 10
-49 -4 -3 -6 -18 -4 -33 2 -16 4 -35 3 -43 -2 -59 5 -90 31 -149 48 -104 50
-114 55 -321 2 -107 6 -206 7 -220 4 -33 24 -70 54 -97 12 -12 23 -27 23 -33
0 -5 6 -10 13 -10 16 -1 -43 -33 -63 -35 -20 -1 -131 -56 -148 -72 -7 -7 -19
-13 -27 -13 -7 0 -15 -4 -17 -8 -1 -4 -21 -21 -43 -37 -58 -43 -63 -47 -95
-77 -15 -16 -34 -28 -41 -28 -7 0 -10 -3 -6 -6 3 -4 -24 -27 -61 -52 -37 -25
-68 -49 -70 -54 -2 -4 -9 -8 -16 -8 -6 0 -19 -9 -29 -20 -9 -11 -24 -20 -32
-20 -9 0 -14 -4 -10 -9 3 -5 -4 -12 -15 -16 -11 -3 -26 -12 -32 -18 -28 -26
-108 -88 -108 -84 0 6 -55 -41 -102 -85 -15 -15 -28 -25 -28 -22 0 8 -163
-159 -180 -184 -8 -13 -26 -25 -40 -27 -26 -5 -89 -18 -102 -21 -5 -1 -9 -2
-10 -4 -2 -1 -10 -3 -18 -5 -8 -1 -35 -8 -60 -16 -25 -7 -50 -13 -57 -15 -7
-1 -40 -9 -75 -18 -74 -18 -134 -29 -165 -30 -13 -1 -23 -4 -23 -8 0 -5 -3 -7
-7 -6 -5 1 -30 -2 -58 -7 -27 -4 -59 -9 -70 -10 -11 -1 -42 -5 -68 -9 -27 -4
-99 -9 -160 -11 -113 -4 -330 -15 -422 -20 -27 -2 -71 -4 -97 -6 -27 -1 -48
-7 -48 -13 0 -6 -4 -6 -11 1 -7 7 -24 8 -48 2 -21 -5 -67 -11 -102 -13 -35 -3
-84 -8 -109 -12 -69 -9 -110 -14 -165 -19 -27 -3 -66 -8 -85 -10 -69 -10 -156
-19 -182 -19 -16 -1 -28 -3 -28 -6 0 -3 -15 -5 -33 -6 -49 -1 -179 -14 -186
-18 -3 -2 -35 -7 -71 -10 -63 -6 -105 -13 -105 -16 0 -1 -13 -3 -30 -4 -16 -2
-55 -7 -85 -11 -30 -4 -64 -9 -75 -11 -11 -1 -20 -3 -20 -4 0 -1 -15 -3 -34
-6 -39 -5 -65 -10 -101 -18 -14 -3 -36 -8 -50 -10 -25 -4 -172 -35 -200 -42
-8 -2 -44 -11 -80 -19 -36 -9 -76 -19 -90 -22 -44 -9 -55 -11 -57 -13 -4 -3
-11 -5 -68 -15 -27 -4 -57 -10 -65 -12 -36 -9 -168 -30 -200 -32 -8 -1 -28
-12 -44 -24 -30 -25 -43 -79 -24 -103 8 -11 -24 -28 -45 -25 -5 1 -6 -3 -2 -9
3 -6 10 -8 14 -5 5 2 8 -4 7 -15 0 -11 -4 -20 -8 -20 -5 0 -11 0 -15 0 -5 0
-1 5 7 10 9 6 10 10 3 10 -23 0 -23 -19 -1 -36 18 -12 19 -15 4 -10 -13 4 -17
2 -13 -7 3 -8 -3 -27 -14 -43 -11 -17 -19 -23 -20 -14 0 9 -4 7 -11 -7 -6 -13
-18 -24 -27 -25 -9 0 -22 -2 -29 -2 -8 -1 -18 -9 -23 -19 -8 -13 -6 -17 8 -18
41 -1 84 -7 89 -12 6 -6 -95 -29 -136 -31 -14 -1 -29 -4 -35 -7 -5 -4 -28 -10
-50 -14 -22 -5 -42 -9 -45 -10 -97 -23 -300 -131 -300 -159 0 -8 -5 -16 -12
-18 -15 -5 -16 -120 -1 -125 6 -2 -3 -27 -23 -60 -19 -31 -34 -66 -34 -78 0
-12 -3 -25 -7 -29 -4 -3 -8 -12 -9 -19 -2 -7 -6 -25 -9 -42 -4 -16 -8 -39 -9
-50 -2 -11 -6 -27 -9 -35 -5 -13 -20 -89 -33 -170 -15 -86 -24 -140 -29 -175
-3 -23 -8 -52 -11 -65 -3 -14 -7 -45 -9 -70 -2 -25 -6 -61 -9 -80 -3 -20 -8
-60 -10 -90 -3 -30 -8 -66 -11 -80 -2 -14 -7 -52 -10 -85 -5 -64 -9 -103 -20
-200 -4 -33 -9 -85 -11 -115 -1 -30 -6 -91 -10 -135 -4 -44 -8 -101 -8 -128 0
-26 -3 -47 -6 -47 -3 0 -6 -33 -6 -73 -7 -345 -11 -468 -17 -473 -3 -3 -2 -17
3 -30 6 -15 6 -26 -1 -30 -7 -4 -6 -10 1 -19 6 -7 8 -19 5 -27 -10 -25 -12
-138 -3 -138 5 0 6 -5 2 -12 -10 -16 -11 -398 -2 -405 5 -2 4 -12 0 -21 -7
-15 -8 -72 -2 -79 6 -7 5 -30 -1 -55 -4 -16 -4 -28 0 -28 4 0 8 -42 9 -93 2
-51 4 -102 6 -113 5 -25 19 -207 20 -261 1 -24 4 -43 7 -43 3 0 6 -19 7 -42 2
-51 8 -117 16 -173 7 -51 17 -132 21 -170 1 -16 4 -30 5 -30 1 0 3 -18 5 -40
3 -47 11 -106 21 -155 4 -19 8 -47 10 -62 2 -16 9 -58 15 -95 7 -38 13 -79 14
-93 2 -14 8 -43 13 -64 6 -22 9 -43 6 -47 -3 -5 -1 -17 4 -26 6 -10 12 -36 16
-58 3 -22 8 -51 11 -65 3 -14 8 -41 10 -60 2 -19 8 -49 14 -67 5 -17 7 -34 4
-37 -3 -3 -2 -13 2 -23 4 -10 9 -25 10 -33 3 -23 18 -113 22 -130 1 -8 5 -36
7 -63 3 -26 7 -51 11 -56 3 -6 8 -29 10 -53 2 -24 7 -59 11 -78 4 -19 7 -47 7
-62 0 -16 4 -28 7 -28 4 0 7 -10 6 -22 -1 -13 1 -39 6 -58 7 -38 20 -138 22
-182 0 -16 3 -28 6 -28 3 0 5 -12 6 -27 0 -16 4 -50 8 -78 4 -27 9 -63 10 -80
4 -29 12 -67 16 -72 18 -22 -22 -113 -61 -141 -10 -7 -25 -20 -34 -29 -23 -22
-84 -63 -95 -63 -6 0 -10 -4 -10 -10 0 -5 -7 -6 -17 -3 -9 4 -14 2 -11 -3 5
-8 -111 -68 -362 -188 -25 -11 -47 -24 -48 -29 -2 -4 -8 -4 -14 -1 -6 4 -13 3
-17 -2 -5 -8 -55 -35 -71 -39 -28 -7 -50 -18 -50 -26 0 -6 -4 -8 -9 -5 -5 3
-26 -2 -47 -11 -22 -9 -42 -18 -46 -19 -5 -1 -10 -3 -13 -4 -3 -1 -8 -3 -12
-5 -5 -1 -15 -5 -23 -8 -29 -12 -140 -47 -157 -50 -10 -1 -23 -6 -28 -9 -6 -4
-29 -9 -50 -12 -22 -3 -76 -14 -119 -24 -77 -17 -81 -20 -102 -59 -12 -23 -19
-44 -16 -47 2 -3 -3 -8 -12 -12 -9 -3 -14 -10 -11 -14 3 -5 -1 -15 -9 -23 -8
-8 -13 -17 -11 -19 3 -3 -7 -29 -22 -59 -29 -58 -30 -61 -32 -85 0 -8 -5 -13
-9 -10 -5 3 -9 -16 -11 -41 -1 -26 -4 -49 -6 -53 -10 -16 17 -32 59 -33 25 0
46 -6 46 -12 0 -6 3 -7 8 0 8 11 52 16 52 6 0 -4 34 -6 75 -6 41 0 75 -4 75
-8 0 -5 5 -5 12 -1 18 11 100 4 117 -9 12 -9 13 -9 7 1 -5 9 1 12 23 10 17 -1
31 -6 31 -11 0 -5 6 -4 13 2 8 6 16 9 18 6 3 -2 38 -7 79 -10 41 -4 91 -9 110
-11 76 -10 330 -10 330 1 0 7 3 6 8 -1 4 -6 34 -11 67 -12 33 -2 80 -5 105 -8
51 -5 192 -13 321 -18 84 -3 158 4 314 29 104 16 160 19 483 25 52 1 108 6
125 12 18 5 43 11 57 14 14 3 43 10 65 16 22 5 47 12 55 14 124 31 209 65 242
98 47 45 64 103 50 165 -10 43 -9 46 21 75 42 41 66 92 93 199 1 4 3 10 4 15
1 4 1 15 0 25 -1 10 3 24 7 30 5 7 10 28 12 48 2 37 8 74 11 74 1 0 3 14 5 31
1 17 5 42 8 55 8 30 19 213 21 336 0 51 3 93 6 93 3 0 5 21 6 48 0 51 11 152
20 192 3 14 10 51 16 83 6 31 14 57 17 57 3 0 7 14 8 31 1 17 7 36 12 43 5 6
12 36 15 66 11 106 16 145 22 160 4 8 8 24 10 35 12 82 15 105 20 145 6 52 9
69 17 90 3 8 8 34 11 58 3 24 8 48 12 53 3 6 7 20 9 32 6 37 10 52 18 65 5 6
6 12 2 12 -3 0 2 17 10 37 9 21 16 39 16 41 -1 1 -1 3 0 5 1 1 2 13 3 27 2 14
6 39 10 55 3 17 8 41 11 55 11 57 18 86 24 95 3 6 6 12 7 15 0 3 4 13 7 22 4
10 10 26 14 35 3 10 7 20 7 23 1 3 6 12 11 20 5 8 10 20 10 25 2 20 26 101 36
119 6 10 13 30 15 44 3 14 10 35 17 46 6 12 12 24 13 29 1 4 3 9 4 12 1 3 3 8
4 13 1 4 7 16 13 27 6 11 12 23 12 27 2 10 9 33 18 55 10 29 15 47 16 66 1 9
4 17 8 17 4 0 6 11 4 25 -1 14 1 25 4 25 4 0 7 10 8 23 0 12 6 48 13 80 6 33
9 61 6 65 -3 3 -1 11 6 19 12 15 15 295 4 331 -4 11 -9 39 -12 63 -8 68 -12
90 -24 137 -6 24 -8 47 -5 52 3 4 1 10 -4 12 -8 3 -14 32 -25 113 -1 11 -6 43
-11 70 -5 28 -8 54 -7 59 2 4 -3 14 -9 22 -6 8 -9 14 -6 14 3 0 -2 21 -10 48
-8 26 -16 58 -18 71 -2 13 -8 28 -14 34 -6 6 -11 17 -11 25 0 8 -12 37 -26 66
-14 28 -25 52 -25 53 1 6 -13 38 -18 43 -4 3 -15 22 -26 43 -11 20 -23 37 -27
37 -5 0 -7 3 -6 8 3 7 -26 59 -70 125 -23 34 -25 46 -23 135 2 135 15 300 26
310 2 3 45 -62 54 -83 2 -5 9 -15 15 -21 6 -6 18 -21 26 -34 27 -40 73 -65
120 -66 25 -1 57 -6 71 -12 54 -22 144 -20 244 6 138 36 233 51 375 58 222 10
452 30 585 50 17 3 41 6 55 8 14 1 36 5 50 9 14 3 39 8 55 11 17 2 37 7 45 10
8 3 29 7 45 10 17 3 47 9 68 15 20 5 37 7 37 5 0 -3 9 0 19 6 11 5 36 13 57
16 20 3 48 10 62 15 13 5 28 7 33 3 5 -3 9 -1 9 3 0 5 12 10 28 12 43 4 56 7
73 15 9 4 29 9 45 11 16 2 29 4 29 5 0 2 34 10 65 15 14 2 45 9 70 14 25 6 56
13 70 16 37 8 92 17 120 20 14 2 25 4 25 5 0 2 30 8 80 15 22 3 51 7 65 10 24
5 64 11 140 20 19 2 64 9 100 14 36 6 85 13 110 16 97 12 112 14 117 19 3 3
15 1 26 -5 13 -8 17 -8 13 -1 -4 6 1 11 11 10 31 -1 170 20 193 29 8 4 18 5
23 5 4 -1 28 3 55 9 26 6 58 12 72 14 14 2 26 4 28 6 7 5 115 24 125 21 4 -1
7 3 7 9 0 6 10 9 23 8 12 -2 28 0 34 4 7 4 25 10 40 12 31 5 46 8 121 28 36
10 52 11 52 3 0 -8 2 -8 8 0 6 10 140 44 192 48 9 1 20 5 25 8 13 8 91 21 128
22 15 1 27 5 27 10 0 4 7 6 15 3 8 -4 17 -2 20 3 3 5 13 9 23 9 9 -1 43 6 75
14 69 17 65 18 95 -10 14 -13 29 -20 34 -17 5 3 14 1 21 -4 7 -6 15 -10 20
-10 4 0 26 -4 50 -8 44 -8 250 -7 327 2 25 2 81 6 125 9 44 2 80 5 80 6 0 1
23 3 50 5 83 5 166 12 250 20 44 4 106 8 137 8 32 1 58 3 58 6 0 3 10 6 23 7
12 1 51 5 87 9 36 4 70 8 75 9 14 1 25 -16 25 -42 0 -13 5 -23 10 -23 6 0 10
-7 10 -15 0 -8 5 -15 10 -15 6 0 10 -5 10 -11 0 -10 47 -73 85 -113 53 -56
121 -138 155 -186 27 -38 48 -65 68 -85 6 -8 12 -16 12 -20 0 -3 13 -20 30
-38 90 -97 227 -242 243 -256 10 -9 46 -43 81 -76 34 -33 91 -85 126 -115 35
-30 79 -70 97 -87 18 -18 35 -33 37 -33 3 0 24 -18 46 -40 22 -22 45 -40 50
-40 6 0 10 -7 10 -15 0 -8 4 -15 8 -15 5 0 44 -34 87 -75 43 -41 80 -75 81
-75 8 0 64 -60 64 -69 0 -6 4 -11 8 -11 14 0 112 -98 112 -111 0 -7 2 -10 5
-7 5 5 65 -48 65 -57 0 -4 352 -352 417 -412 62 -57 88 -80 173 -153 36 -30
75 -65 87 -77 13 -12 23 -21 23 -19 0 3 20 -15 111 -100 14 -13 28 -24 31 -24
4 0 22 -15 40 -32 19 -18 49 -44 68 -58 18 -14 38 -30 44 -35 18 -17 91 -62
97 -61 4 1 15 -6 25 -14 11 -9 30 -21 44 -27 14 -6 42 -18 63 -28 21 -9 48
-19 60 -21 38 -9 52 -12 52 -14 0 -3 88 -17 122 -19 9 -1 10 -8 5 -23 -19 -54
6 -145 51 -190 9 -10 17 -23 17 -29 0 -5 5 -7 10 -4 6 3 10 2 10 -4 0 -5 25
-34 55 -65 30 -30 55 -53 55 -50 0 3 15 -10 33 -28 18 -18 42 -40 54 -48 44
-32 168 -135 171 -142 2 -4 8 -8 12 -8 5 0 20 -10 32 -22 13 -13 41 -37 63
-55 22 -17 57 -47 77 -66 35 -32 69 -46 124 -52 11 -1 36 9 54 22 19 12 32 23
28 23 -3 0 0 21 8 46 7 26 11 50 8 55 -17 29 64 -23 120 -77 6 -5 41 -31 79
-56 37 -26 80 -58 95 -72 97 -91 137 -126 144 -126 4 0 8 -7 8 -15 0 -8 7 -15
15 -15 7 0 18 -6 22 -13 4 -7 19 -21 33 -30 13 -9 21 -17 16 -17 -4 0 12 -15
36 -33 98 -75 190 -144 223 -167 20 -14 42 -31 50 -37 7 -7 16 -13 20 -13 11
0 87 -62 139 -112 26 -27 52 -48 57 -48 5 0 9 -3 9 -7 0 -5 18 -27 40 -51 22
-24 40 -45 40 -49 0 -3 12 -20 28 -38 52 -61 62 -75 62 -85 0 -6 4 -10 9 -10
5 0 20 -17 32 -37 13 -21 27 -42 31 -48 5 -5 36 -46 70 -90 34 -44 77 -96 95
-115 18 -19 33 -39 33 -44 0 -5 6 -17 14 -25 11 -13 74 -149 76 -166 0 -3 2
-10 4 -17 16 -51 14 -59 -12 -70 -15 -6 -29 -12 -32 -12 -18 -3 -130 -62 -130
-68 0 -4 -6 -8 -14 -8 -8 0 -75 -29 -150 -65 -75 -36 -143 -65 -151 -65 -8 0
-15 -5 -15 -12 0 -6 -3 -8 -6 -5 -4 3 -16 1 -28 -5 -11 -7 -23 -13 -26 -13
-10 -3 -66 -27 -94 -41 -16 -8 -35 -14 -41 -14 -7 0 -18 -6 -24 -13 -6 -8 -30
-20 -53 -27 -24 -8 -54 -22 -67 -32 -13 -10 -29 -18 -37 -18 -7 0 -14 -4 -16
-9 -3 -7 -232 -124 -250 -127 -5 -1 -11 -3 -15 -4 -5 -1 -11 -2 -15 -1 -5 0
-8 -4 -8 -9 0 -6 -9 -10 -19 -10 -11 0 -22 -4 -25 -9 -5 -7 -23 -13 -106 -36
-77 -20 -124 -40 -142 -60 -37 -39 -49 -55 -42 -55 3 0 2 -6 -3 -12 -24 -30
-34 -106 -19 -127 9 -12 8 -13 -4 -6 -12 6 -13 5 -2 -6 6 -7 12 -20 12 -29 0
-15 68 -86 80 -84 3 0 25 -9 50 -20 25 -11 52 -22 60 -23 8 -1 49 -12 90 -25
70 -20 94 -22 355 -22 256 0 333 3 375 18 16 6 142 18 175 17 11 0 36 4 57 9
31 9 119 17 248 24 19 1 41 5 48 9 7 5 12 3 12 -3 0 -6 4 -9 8 -6 4 3 42 8 83
12 40 3 78 9 83 12 5 2 63 6 130 8 206 6 348 19 376 34 11 6 25 8 30 5 6 -3
10 -2 10 3 0 12 14 13 160 17 124 3 163 7 230 25 19 6 49 10 66 10 49 0 121
37 175 91 27 27 49 53 49 58 0 5 5 11 11 13 5 2 11 10 12 18 2 8 5 20 9 25 36
58 58 334 33 420 -6 22 -10 46 -7 53 2 6 0 12 -5 12 -4 0 -14 13 -21 28 -7 16
-23 34 -37 40 -13 6 -32 26 -41 44 -9 18 -42 73 -73 121 -31 49 -56 93 -56 97
0 5 -6 15 -12 21 -7 7 -13 18 -13 24 0 10 -24 58 -79 158 -18 31 -29 57 -26
57 4 0 2 7 -5 15 -7 8 -9 15 -5 15 4 0 3 6 -2 13 -6 6 -23 59 -38 117 -25 98
-31 124 -40 175 -2 11 -8 37 -13 58 -6 20 -7 37 -4 37 3 0 1 5 -6 12 -7 7 -12
27 -12 44 0 18 -4 36 -10 39 -5 3 -8 18 -6 33 1 16 -1 39 -6 53 -9 24 -17 148
-22 375 -1 66 -6 126 -10 132 -4 7 -2 12 4 12 6 0 9 4 5 9 -3 5 -7 29 -10 53
-9 75 -12 102 -19 148 -10 61 -14 85 -16 88 -2 1 -3 10 -4 20 -2 9 -7 35 -13
57 -5 22 -16 65 -22 95 -15 65 -26 100 -54 160 -11 25 -20 48 -19 53 1 4 -2 7
-7 7 -5 0 -13 10 -17 23 -4 12 -15 33 -25 46 -10 13 -16 27 -13 32 3 5 0 9 -6
9 -6 0 -9 4 -5 9 3 5 1 12 -4 15 -5 3 -18 24 -30 45 -11 22 -41 61 -66 86 -25
25 -45 48 -45 51 0 6 -16 26 -46 59 -12 13 -20 26 -18 28 6 5 -48 53 -146 127
-47 36 -89 71 -93 78 -4 6 -12 12 -17 12 -5 0 -35 16 -66 36 -50 32 -69 46
-108 79 -15 13 -47 33 -64 42 -8 3 -24 15 -36 27 -53 51 -118 106 -125 106 -4
0 -13 6 -19 12 -7 7 -16 13 -20 13 -39 3 -79 29 -95 62 -10 21 -27 53 -38 71
l-21 32 21 0 c58 0 104 50 106 114 2 65 -90 235 -175 323 -39 39 -70 70 -70
69 0 -1 -58 54 -129 123 -180 176 -321 307 -421 391 -29 25 -58 50 -64 55 -6
6 -36 30 -66 55 -30 24 -63 52 -73 62 -10 10 -21 18 -25 18 -4 0 -23 15 -43
33 -45 39 -60 51 -126 104 -29 22 -49 44 -45 48 4 5 2 5 -4 2 -6 -4 -25 7 -43
23 -17 17 -35 30 -41 30 -5 0 -10 3 -10 8 0 4 -18 18 -39 32 -22 13 -38 28
-35 32 3 4 -1 8 -9 8 -7 0 -23 9 -36 21 -12 11 -52 44 -89 72 -37 28 -72 56
-78 62 -6 5 -22 17 -35 25 -12 8 -35 26 -50 40 -15 14 -37 32 -50 40 -12 8
-38 30 -56 48 -19 17 -37 32 -39 32 -2 0 -12 8 -22 17 -10 10 -45 41 -77 68
-32 28 -85 75 -117 106 -32 30 -58 54 -58 53 0 -2 -30 29 -67 69 -38 39 -91
94 -119 122 l-51 51 22 29 c13 15 28 46 33 67 11 42 6 116 -9 134 -5 6 -6 14
-2 17 3 4 2 7 -3 7 -5 0 -10 8 -11 18 -3 57 -11 110 -17 120 -4 7 -5 12 -2 12
2 0 0 15 -5 33 -6 17 -12 43 -15 57 -2 14 -9 36 -14 50 -8 23 -11 38 -25 120
-4 22 -23 121 -39 205 -11 55 -19 100 -22 125 -1 14 -5 36 -8 50 -14 60 -20
96 -18 103 1 4 -2 7 -6 7 -4 0 -8 10 -9 22 -2 20 -5 31 -29 93 -4 11 -6 24 -5
29 1 4 -4 14 -10 22 -6 8 -8 14 -3 14 4 0 3 5 -4 12 -7 7 -12 20 -12 30 0 10
-9 37 -19 61 -23 52 -33 78 -37 97 -2 8 -7 23 -13 35 -40 83 -50 153 -55 391
-4 162 -9 204 -27 204 -5 0 -8 3 -8 8 3 20 -3 30 -28 41 l-28 13 55 23 c30 14
51 24 46 25 -5 0 1 9 14 20 13 11 20 20 15 20 -4 0 -2 7 5 14 6 8 14 30 17 48
3 18 10 36 16 40 7 4 9 8 5 8 -4 0 -3 12 3 28 12 30 15 41 23 98 11 68 18 108
25 129 7 24 6 474 -2 530 -3 22 -10 56 -16 75 -12 41 -22 86 -24 115 -2 16 4
20 26 20 15 -1 27 3 27 7 0 4 5 8 11 8 5 0 27 11 47 25 20 14 33 25 29 25 -5
0 2 10 15 23 13 12 25 33 27 47 1 14 8 28 15 32 6 4 7 8 3 8 -4 0 -3 9 3 21 6
11 13 28 15 37 2 9 15 53 30 97 15 44 27 86 28 93 0 6 4 12 9 12 5 0 7 4 4 8
-3 5 2 28 11 53 8 24 17 53 18 64 2 11 14 54 25 95 12 41 24 84 26 95 8 31 10
38 23 70 7 17 14 42 16 58 2 15 8 33 12 40 4 6 8 21 9 33 0 12 4 30 9 40 4 10
10 28 12 39 2 11 17 74 34 140 17 66 31 126 32 133 0 6 5 12 10 12 5 0 7 9 4
20 -3 11 -2 22 3 25 4 3 11 22 16 42 4 21 8 40 9 43 16 54 24 86 25 93 0 4 7
21 15 37 9 17 14 30 11 30 -2 0 3 21 11 48 16 51 21 74 29 112 2 14 7 31 9 38
4 11 10 58 20 147 1 11 5 34 9 50 19 88 26 124 31 165 6 57 14 101 22 113 3 6
8 24 9 41 2 17 7 38 11 46 7 17 9 25 16 62 3 14 10 36 17 47 6 12 8 21 5 21
-3 0 0 10 7 23 7 12 13 25 14 30 1 4 3 9 4 12 1 3 3 8 4 13 1 4 10 24 19 46 9
21 17 41 17 45 0 3 8 22 19 41 10 19 24 52 30 73 7 20 17 37 22 37 5 0 8 3 7
8 -1 4 3 23 10 42 7 19 12 37 11 39 0 2 5 7 13 12 7 5 13 12 13 16 0 4 13 35
29 68 15 33 34 74 41 90 41 95 69 151 79 157 6 4 7 8 2 8 -4 0 -1 11 8 25 9
14 14 25 11 25 -2 0 4 17 15 39 18 33 28 92 32 181 2 57 -30 113 -117 203 -41
42 -71 77 -67 78 4 0 -3 4 -15 9 -13 5 -23 16 -23 25 0 8 -3 15 -8 15 -4 0
-30 21 -58 48 -28 26 -76 70 -107 99 -32 29 -57 57 -57 62 0 5 -8 12 -18 15
-20 7 -95 78 -157 150 -40 46 -144 126 -164 126 -6 0 -11 4 -11 8 0 5 -11 14
-25 20 -26 12 -40 22 -76 55 -10 9 -21 16 -23 15 -3 -2 -16 7 -30 20 -15 12
-29 22 -33 22 -4 0 -16 8 -27 19 -25 21 -154 111 -161 111 -3 0 -16 10 -30 22
-30 26 -46 31 -104 29 -30 0 -64 9 -105 29 -80 38 -119 54 -128 52 -5 -1 -8 1
-8 6 0 4 -12 12 -27 18 -41 17 -67 27 -73 28 -3 1 -11 5 -17 9 -7 5 -21 10
-30 12 -36 8 -148 50 -151 58 -2 4 -14 7 -27 7 -13 0 -27 5 -30 10 -4 6 -10 8
-15 5 -4 -3 -13 2 -20 10 -7 8 -17 15 -23 15 -14 0 -116 49 -149 72 -16 11
-28 17 -28 14 0 -4 -27 7 -60 24 -33 17 -60 28 -60 25 0 -4 -12 0 -27 8 -16 8
-48 21 -73 28 -25 7 -49 16 -55 21 -5 4 -17 8 -27 8 -10 0 -18 5 -18 11 0 6
-6 9 -14 6 -8 -3 -20 1 -26 8 -7 8 -15 14 -18 13 -4 -1 -17 3 -29 10 -12 7
-26 12 -30 11 -4 -1 -10 0 -13 1 -3 1 -13 3 -22 5 -9 2 -32 8 -52 15 -36 11
-39 18 -61 135 -3 17 -8 41 -11 55 -3 14 -7 39 -10 55 -3 17 -9 44 -13 61 -11
42 -1 57 61 89 29 15 60 33 68 41 16 14 127 67 146 70 7 1 38 11 70 22 59 20
203 63 259 78 37 9 33 8 70 23 76 31 165 75 165 83 0 5 4 7 9 4 5 -3 12 1 15
10 3 8 10 12 16 9 5 -3 10 -3 10 2 0 4 15 14 33 22 17 8 34 17 37 20 3 3 43
26 90 50 47 24 103 56 125 71 120 81 251 174 260 184 5 7 28 25 50 41 119 86
206 169 299 280 31 39 67 80 78 93 59 64 138 168 138 179 0 7 4 13 9 13 14 0
44 87 38 109 -4 16 2 21 27 27 41 10 37 9 69 22 35 15 40 15 32 2 -7 -12 16
-80 27 -80 4 0 8 -7 8 -15 0 -8 3 -15 8 -15 4 0 18 -20 32 -45 14 -25 28 -45
32 -45 5 0 8 -4 8 -10 0 -10 36 -68 68 -110 11 -14 22 -35 26 -46 4 -12 15
-29 26 -39 11 -10 20 -24 20 -31 0 -7 3 -14 8 -16 9 -4 126 -177 137 -203 4
-11 7 -24 6 -28 -1 -5 3 -6 8 -3 7 5 22 -17 22 -34 1 -3 4 -9 9 -15 9 -11 46
-75 66 -115 7 -14 22 -35 34 -47 11 -12 20 -27 20 -32 0 -6 8 -15 18 -20 9 -6
14 -11 10 -11 -5 0 1 -10 11 -22 10 -13 38 -45 61 -73 70 -85 134 -157 154
-174 10 -9 26 -23 35 -32 9 -9 39 -34 66 -54 28 -21 52 -42 53 -47 2 -4 7 -6
12 -3 4 3 13 -2 20 -10 7 -8 19 -15 27 -15 7 0 16 -7 19 -15 4 -8 10 -12 15
-9 5 3 9 0 9 -5 0 -6 4 -11 10 -11 5 0 43 -23 83 -50 41 -28 79 -50 85 -50 7
0 12 -4 12 -10 0 -5 7 -10 15 -10 8 0 15 -5 15 -11 0 -5 4 -8 9 -5 5 3 11 -1
15 -9 3 -8 12 -15 21 -15 8 0 15 -4 15 -8 0 -8 114 -78 164 -99 15 -7 39 -13
51 -13 13 0 25 -4 27 -10 2 -5 17 -12 33 -14 17 -3 41 -7 55 -11 57 -15 82
-17 230 -19 85 -1 161 2 168 7 6 5 12 7 12 4 0 -3 15 -1 33 4 17 6 39 12 47
13 52 8 90 19 90 27 0 5 7 6 15 3 13 -5 60 8 155 44 8 3 18 6 23 7 4 2 9 4 12
5 3 1 8 3 13 4 4 1 42 14 84 29 54 20 84 38 100 59 13 16 28 35 33 41 12 15
31 52 45 90 5 15 14 27 20 27 5 0 10 4 10 10 0 11 90 133 103 138 4 2 7 8 7
14 0 8 44 73 60 88 13 12 44 66 42 73 -1 4 2 7 7 7 9 0 72 95 75 115 2 5 10
27 19 48 18 41 15 97 -7 132 -7 12 -10 34 -6 57 7 42 -11 107 -34 124 -9 6
-13 13 -10 16 2 3 -12 13 -33 23 -21 10 -38 17 -38 15 0 -2 -20 7 -44 19 -24
13 -56 25 -70 27 -35 6 -78 22 -123 46 -21 10 -38 17 -38 14 0 -5 -94 54 -115
72 -6 5 -16 11 -22 13 -24 9 -264 229 -250 229 5 0 -13 21 -78 95 -11 12 -21
28 -23 36 -2 7 -13 21 -24 31 -12 10 -18 18 -14 18 3 0 -5 18 -19 40 -14 22
-25 44 -25 49 0 5 -3 11 -7 13 -9 4 -73 131 -68 136 2 3 19 -4 110 -44 22 -10
51 -19 65 -21 33 -4 52 -9 70 -16 46 -19 114 -41 185 -60 74 -20 131 -24 288
-18 9 1 23 1 30 0 85 -4 207 30 229 65 4 6 8 7 8 3 0 -30 63 71 114 183 6 14
15 28 21 32 5 4 7 8 3 8 -8 0 89 191 102 200 7 5 18 31 17 40 0 3 11 23 25 45
28 45 112 218 123 253 3 12 10 22 13 22 4 0 14 20 21 45 7 25 18 45 24 45 6 0
7 3 4 6 -4 4 2 23 13 43 31 58 64 142 61 154 0 4 4 18 11 30 7 12 13 24 13 27
1 3 6 28 13 55 35 146 35 181 5 241 -28 54 -71 100 -109 115 -15 5 -49 7 -78
3 -28 -3 -64 -7 -81 -9 -16 -1 -30 -4 -30 -5 0 -1 -8 -3 -17 -6 -10 -2 -26 -6
-35 -8 -10 -3 -19 -5 -20 -6 -2 -2 -7 -4 -13 -5 -5 -1 -11 -3 -12 -5 -2 -1
-10 -3 -19 -5 -9 -1 -51 -15 -93 -29 -42 -15 -81 -24 -86 -21 -6 3 -10 2 -10
-3 0 -6 -15 -13 -32 -16 -18 -3 -44 -9 -58 -12 -47 -12 -278 -13 -341 -3 -77
13 -246 69 -348 115 -40 19 -80 34 -87 34 -8 0 -14 5 -14 10 0 6 -9 10 -20 10
-11 0 -20 5 -20 10 0 6 -9 10 -20 10 -11 0 -20 4 -20 9 0 5 -17 11 -37 15 -22
3 -49 17 -63 32 -13 14 -35 30 -49 36 -21 8 -164 14 -181 8 -6 -2 -99 -10
-117 -10 -7 0 -19 0 -25 1 -7 0 -29 -2 -48 -4 -110 -15 -137 -20 -152 -28 -10
-6 -18 -7 -18 -3 0 3 -8 0 -17 -7 -11 -9 -14 -10 -9 -2 5 9 -1 8 -21 -2 -34
-17 -126 -45 -131 -40 -2 2 8 16 22 32 14 15 26 31 26 35 0 4 11 18 24 31 14
14 22 28 19 31 -3 3 2 8 11 12 9 3 16 11 16 18 0 6 11 23 25 38 14 15 25 31
25 35 0 4 12 19 25 32 14 13 24 26 21 28 -2 3 3 13 12 23 20 22 27 31 70 92
17 25 32 49 32 53 0 3 11 18 25 33 14 15 25 32 25 39 0 7 5 13 10 13 6 0 10 7
10 15 0 7 8 19 18 24 9 6 13 11 7 11 -7 0 -7 3 0 8 20 15 56 90 45 97 -7 4 -7
12 0 26 8 14 7 19 -2 19 -9 0 -9 3 0 12 7 7 12 21 12 33 0 12 5 26 12 33 9 9
9 12 -1 12 -9 0 -8 5 3 16 9 8 19 26 22 40 3 13 10 24 15 24 5 0 8 3 8 8 -3
20 2 32 13 26 7 -4 8 -3 4 4 -4 6 0 25 9 42 8 16 16 33 16 37 1 5 7 22 14 40
7 17 10 34 7 38 -4 3 0 10 8 15 11 7 12 10 2 10 -7 0 -11 4 -8 8 6 10 18 70
18 92 1 8 5 21 11 28 5 6 6 12 3 12 -4 0 -1 10 6 23 6 12 12 32 12 44 1 12 4
25 9 29 4 4 7 16 7 26 0 10 4 18 8 18 5 0 8 10 7 23 -1 12 2 29 6 37 17 31 58
138 84 220 14 47 31 95 36 108 7 18 6 21 -3 16 -10 -6 -10 -5 -1 7 10 12 19
48 28 116 2 12 7 28 11 35 4 7 9 24 10 38 1 22 4 48 20 165 2 17 5 66 5 110 1
44 7 86 13 94 7 9 7 12 0 9 -12 -8 -14 180 -1 199 4 6 3 14 -2 17 -13 8 -11
68 3 85 8 11 8 13 -1 8 -8 -5 -12 20 -13 90 -1 54 -3 121 -5 148 -2 28 -3 57
-4 66 -1 12 -19 0 -58 -37 -31 -30 -61 -54 -66 -54 -6 0 -8 -3 -5 -6 4 -3 -12
-22 -35 -42 -23 -20 -56 -50 -73 -67 -17 -16 -48 -44 -67 -62 l-36 -31 5 36
c9 76 11 88 18 130 12 66 17 96 17 112 1 8 5 44 10 80 4 36 11 103 14 150 4
47 9 105 11 130 17 183 19 520 3 520 -3 0 -6 6 -6 13 -1 17 -13 133 -19 182
-3 22 -7 58 -9 80 -2 22 -7 62 -10 89 -4 31 -3 46 4 42 5 -4 3 6 -4 21 -8 16
-12 40 -11 56 2 15 0 30 -5 33 -4 2 -6 11 -3 19 3 7 -3 18 -14 24 -21 11 -92
10 -92 -1 0 -5 -8 -8 -19 -8 -10 0 -38 -23 -62 -51 -61 -72 -69 -79 -81 -79
-6 0 -9 -3 -5 -6 3 -3 -11 -20 -31 -37 -20 -18 -49 -43 -65 -57 -16 -14 -31
-24 -33 -23 -2 2 -14 -7 -28 -20 -39 -36 -54 -46 -81 -59 -14 -6 -25 -15 -25
-20 0 -4 -4 -8 -9 -8 -5 0 -35 -18 -68 -39 -32 -22 -111 -66 -174 -99 -114
-58 -116 -59 -102 -31 8 16 18 29 22 29 4 0 8 10 8 22 1 13 8 27 16 33 8 5 15
15 15 20 1 6 9 28 19 50 9 22 17 42 18 45 0 3 11 27 23 54 12 27 22 52 22 57
0 5 4 9 10 9 5 0 9 3 8 8 -1 4 6 34 16 67 10 33 19 66 19 73 0 6 5 12 10 12 6
0 8 3 4 6 -3 4 0 22 8 41 18 43 14 51 -24 45 -20 -3 -28 -8 -24 -16 4 -6 -1
-5 -10 3 -9 7 -17 9 -17 4 0 -5 -15 -10 -33 -11 -18 -1 -44 -5 -57 -8 -45 -9
-249 -17 -267 -9 -42 17 -231 28 -815 48 -25 1 -44 5 -41 10 2 4 8 7 14 7 36
0 141 115 122 134 -4 3 -1 6 5 6 7 0 12 5 12 11 0 15 -26 39 -34 32 -3 -4 -6
-1 -6 5 0 7 -3 11 -7 10 -10 -2 -41 10 -68 24 -11 7 -37 21 -58 32 -21 11 -46
28 -57 38 -11 10 -20 16 -20 12 0 -4 -8 0 -18 9 -10 10 -22 14 -25 10 -4 -3
-7 -1 -7 5 0 6 -20 23 -45 38 -25 14 -48 31 -53 37 -4 7 -16 17 -27 24 -11 6
-19 16 -17 23 1 6 -2 8 -8 5 -6 -4 -21 4 -33 17 -12 12 -41 36 -65 52 -23 16
-42 33 -42 38 0 5 -4 7 -9 4 -4 -3 -19 4 -32 15 -25 22 -68 43 -81 41 -5 -1
-8 2 -8 6 0 4 -12 9 -27 10 -14 1 -35 9 -45 19 -10 9 -18 13 -18 10 0 -7 -81
22 -90 32 -3 3 -18 7 -35 8 -16 1 -39 7 -50 12 -19 9 -58 20 -99 28 -11 2 -24
7 -30 12 -6 4 -21 7 -33 6 -13 -1 -23 3 -23 8 0 5 -9 7 -20 4 -11 -3 -23 -1
-26 4 -3 5 -22 9 -43 9 -21 0 -41 3 -45 7 -3 4 -23 8 -44 9 -20 1 -50 5 -67 8
-16 3 -64 9 -105 12 -41 4 -82 10 -89 14 -8 5 -25 4 -38 -1 -14 -5 -23 -5 -23
1 0 8 -237 6 -372 -3 -39 -3 -58 -1 -58 7 0 8 -3 8 -8 0 -4 -6 -23 -11 -42
-11 -79 -3 -283 -19 -360 -29 -19 -3 -59 -7 -89 -10 -29 -2 -62 -9 -72 -15
-11 -5 -23 -8 -27 -6 -4 3 -18 0 -32 -6 -14 -5 -36 -12 -50 -14 -14 -2 -29 -8
-34 -13 -5 -5 -17 -5 -29 1 -14 8 -18 8 -13 0 15 -23 -13 -10 -34 17 l-22 27
17 -28 c9 -16 15 -30 13 -33 -7 -7 -33 31 -34 51 -1 11 -3 27 -5 35 -2 8 2 14
9 12 8 -1 11 2 7 8 -3 6 -10 8 -15 5 -5 -3 -11 -1 -14 4 -4 5 -1 13 5 17 8 4
9 3 5 -4 -5 -8 -1 -10 10 -5 14 5 15 7 1 15 -9 5 -14 15 -11 23 4 8 11 12 18
8 6 -4 5 1 -2 10 -8 9 -10 22 -6 29 5 7 10 24 12 38 2 13 8 30 14 37 5 7 7 17
3 23 -3 5 -1 10 5 10 6 0 10 8 9 18 -1 9 0 19 1 22 1 5 7 27 13 57 2 7 6 15 9
19 4 3 4 12 1 20 -3 8 -1 14 5 14 6 0 8 10 4 22 -3 13 -1 19 5 15 6 -4 9 5 8
21 -1 15 1 34 6 42 4 8 9 29 12 45 3 17 8 40 11 52 2 11 8 42 11 67 4 26 10
48 14 50 3 2 6 25 6 50 0 25 2 46 5 46 3 0 5 17 6 38 1 20 4 58 8 83 10 61 -3
71 -69 52z m-2924 -4991 c-5 -9 -19 -26 -32 -37 -17 -15 -15 -10 7 17 32 41
40 48 25 20z m-61 -56 c0 -2 -8 -10 -17 -17 -16 -13 -17 -12 -4 4 13 16 21 21
21 13z m-40 -30 c0 -1 -27 -26 -60 -55 -33 -29 -57 -46 -54 -39 3 7 29 32 57
55 53 43 57 46 57 39z m-174 -145 c-9 -10 -14 -26 -10 -37 5 -18 5 -18 -6 -1
-9 15 -8 22 6 38 9 10 19 19 22 19 3 0 -2 -8 -12 -19z m34 -116 c0 -11 -14 7
-31 40 -7 13 -3 12 10 -5 11 -14 21 -29 21 -35z m-1050 -240 c13 -14 21 -25
18 -25 -2 0 -15 11 -28 25 -13 14 -21 25 -18 25 2 0 15 -11 28 -25z m-367
-205 c-3 -12 -8 -19 -11 -16 -5 6 5 36 12 36 2 0 2 -9 -1 -20z m-16 -192 c-3
-7 -5 -2 -5 12 0 14 2 19 5 13 2 -7 2 -19 0 -25z m10 -248 c-5 -29 -13 -33
-13 -5 0 14 4 25 8 25 4 0 7 -9 5 -20z m3 -90 c0 -11 -4 -20 -9 -20 -5 0 -7 9
-4 20 3 11 7 20 9 20 2 0 4 -9 4 -20z m6399 -2433 c-2 -1 -13 -9 -24 -17 -19
-14 -19 -14 -6 3 7 9 18 17 24 17 6 0 8 -1 6 -3z m-109 -72 c0 -2 -13 -11 -30
-20 -38 -19 -40 -11 -2 9 31 17 32 18 32 11z m-70 -40 c0 -2 -13 -11 -30 -20
-38 -19 -40 -11 -2 9 31 17 32 18 32 11z m-100 -49 c0 -2 -8 -10 -17 -17 -16
-13 -17 -12 -4 4 13 16 21 21 21 13z m-40 -31 c0 -2 -10 -9 -22 -15 -22 -11
-22 -10 -4 4 21 17 26 19 26 11z m-80 -49 c0 -2 -8 -10 -17 -17 -16 -13 -17
-12 -4 4 13 16 21 21 21 13z m-70 -60 c0 -2 -9 -6 -20 -9 -11 -3 -18 -1 -14 4
5 9 34 13 34 5z m-70 -30 c0 -2 -7 -7 -16 -10 -8 -3 -12 -2 -9 4 6 10 25 14
25 6z m-60 -20 c0 -3 -4 -8 -10 -11 -5 -3 -10 -1 -10 4 0 6 5 11 10 11 6 0 10
-2 10 -4z m-60 -26 c-8 -5 -19 -10 -25 -10 -5 0 -3 5 5 10 8 5 20 10 25 10 6
0 3 -5 -5 -10z m-80 -34 c0 -2 -7 -7 -16 -10 -8 -3 -12 -2 -9 4 6 10 25 14 25
6z m-3600 -136 c0 -5 -2 -10 -4 -10 -3 0 -8 5 -11 10 -3 6 -1 10 4 10 6 0 11
-4 11 -10z m139 -26 c10 -9 -55 -3 -69 6 -10 6 -2 7 25 3 22 -3 42 -7 44 -9z
m36 -14 c3 -5 2 -10 -4 -10 -5 0 -13 5 -16 10 -3 6 -2 10 4 10 5 0 13 -4 16
-10z m105 -14 c0 -9 -30 -14 -35 -6 -4 6 3 10 14 10 12 0 21 -2 21 -4z m100
-10 c0 -3 -4 -8 -10 -11 -5 -3 -10 -1 -10 4 0 6 5 11 10 11 6 0 10 -2 10 -4z
m67 -12 c-3 -3 -12 -4 -19 -1 -8 3 -5 6 6 6 11 1 17 -2 13 -5z m53 -3 c0 -5
-9 -7 -20 -4 -11 3 -20 7 -20 9 0 2 9 4 20 4 11 0 20 -4 20 -9z m40 5 c0 -3
-4 -8 -10 -11 -5 -3 -10 -1 -10 4 0 6 5 11 10 11 6 0 10 -2 10 -4z m65 -7 c-5
-6 -55 0 -55 7 0 3 13 3 29 2 16 -1 28 -5 26 -9z m88 -6 c-13 -2 -35 -2 -50 0
-16 2 -5 4 22 4 28 0 40 -2 28 -4z m2284 -160 c-3 -10 -5 -4 -5 12 0 17 2 24
5 18 2 -7 2 -21 0 -30z m-5 -117 c-6 -49 -13 -46 -10 3 1 22 5 38 8 36 3 -2 4
-20 2 -39z m-555 -42 c-3 -3 -12 -4 -19 -1 -8 3 -5 6 6 6 11 1 17 -2 13 -5z
m80 0 c-3 -3 -12 -4 -19 -1 -8 3 -5 6 6 6 11 1 17 -2 13 -5z m93 -30 c0 -2 -9
0 -20 6 -11 6 -20 13 -20 16 0 2 9 0 20 -6 11 -6 20 -13 20 -16z m-313 10 c-3
-3 -12 -4 -19 -1 -8 3 -5 6 6 6 11 1 17 -2 13 -5z m516 -41 c-7 -2 -21 -2 -30
0 -10 3 -4 5 12 5 17 0 24 -2 18 -5z m117 -23 c11 -8 7 -9 -15 -4 -37 8 -45
14 -19 14 10 0 26 -5 34 -10z m-140 -280 c8 -5 11 -10 5 -10 -5 0 -17 5 -25
10 -8 5 -10 10 -5 10 6 0 17 -5 25 -10z m60 -5 c0 -2 -9 -3 -19 -2 -11 0 -18
5 -15 9 4 6 34 0 34 -7z m-8153 -687 c-3 -8 -6 -5 -6 6 -1 11 2 17 5 13 3 -3
4 -12 1 -19z m-7 -48 c-6 -11 -13 -20 -16 -20 -2 0 0 9 6 20 6 11 13 20 16 20
2 0 0 -9 -6 -20z m-46 -65 c-14 -19 -29 -35 -31 -35 -5 0 7 18 36 53 26 31 23
18 -5 -18z m-64 -84 c-5 -11 -15 -23 -21 -27 -6 -3 -3 5 6 20 20 30 30 35 15
7z m-77 -111 c-3 -11 -10 -23 -16 -27 -5 -3 -8 -2 -5 3 3 5 8 17 11 27 9 24
16 22 10 -3z m-25 -65 c-6 -14 -13 -23 -15 -21 -5 5 15 46 22 46 3 0 -1 -11
-7 -25z m-21 -57 c-3 -8 -6 -5 -6 6 -1 11 2 17 5 13 3 -3 4 -12 1 -19z m0 -50
c-3 -7 -5 -2 -5 12 0 14 2 19 5 13 2 -7 2 -19 0 -25z m23 -48 c6 -11 8 -20 6
-20 -3 0 -10 9 -16 20 -6 11 -8 20 -6 20 3 0 10 -9 16 -20z m64 -59 c-2 -3
-12 3 -22 13 -16 17 -16 18 5 5 12 -7 20 -15 17 -18z m67 -68 c13 -16 12 -17
-3 -4 -10 7 -18 15 -18 17 0 8 8 3 21 -13z m59 -58 c13 -14 21 -25 18 -25 -2
0 -15 11 -28 25 -13 14 -21 25 -18 25 2 0 15 -11 28 -25z m45 -45 c3 -5 1 -10
-4 -10 -6 0 -11 5 -11 10 0 6 2 10 4 10 3 0 8 -4 11 -10z m36 -37 c13 -16 12
-17 -3 -4 -17 13 -22 21 -14 21 2 0 10 -8 17 -17z m45 -55 l29 -33 -32 29
c-31 28 -38 36 -30 36 2 0 16 -15 33 -32z m84 -93 c19 -19 32 -35 29 -35 -3 0
-20 16 -39 35 -19 19 -32 35 -29 35 3 0 20 -16 39 -35z m86 -97 l29 -33 -32
29 c-18 17 -33 31 -33 33 0 8 8 1 36 -29z m94 -100 c0 -12 -6 -9 -26 13 -19
22 -19 22 4 8 12 -8 22 -17 22 -21z m31 -35 c13 -16 12 -17 -3 -4 -10 7 -18
15 -18 17 0 8 8 3 21 -13z m74 -73 c3 -6 -1 -7 -9 -4 -18 7 -21 14 -7 14 6 0
13 -4 16 -10z m30 -30 c3 -6 -1 -7 -9 -4 -18 7 -21 14 -7 14 6 0 13 -4 16 -10z
m65 -67 c0 -7 -39 17 -46 28 -3 6 5 3 20 -6 14 -10 26 -19 26 -22z m-1175 -53
c21 -22 37 -40 34 -40 -3 0 -23 18 -44 40 -21 22 -37 40 -34 40 3 0 23 -18 44
-40z m1219 1 c-3 -3 -15 6 -27 18 l-22 24 27 -19 c14 -10 24 -21 22 -23z
m3496 -31 c0 -5 -2 -10 -4 -10 -3 0 -8 5 -11 10 -3 6 -1 10 4 10 6 0 11 -4 11
-10z m-3389 -64 c24 -21 35 -33 24 -27 -11 6 -40 29 -65 52 -54 50 -22 30 41
-25z m3410 27 c13 -16 12 -17 -3 -4 -17 13 -22 21 -14 21 2 0 10 -8 17 -17z
m-4646 -33 c16 -17 16 -20 3 -15 -9 4 -19 13 -22 21 -7 19 -2 18 19 -6z m4365
-25 c-7 -8 -17 -15 -23 -15 -6 0 -2 7 9 15 25 19 30 19 14 0z m-4314 -37 l29
-33 -32 29 c-18 17 -33 31 -33 33 0 8 8 1 36 -29z m4244 -3 c0 -2 -13 -11 -30
-20 -38 -19 -40 -11 -2 9 31 17 32 18 32 11z m-2953 -25 c14 -11 22 -20 18
-20 -4 0 -18 9 -32 20 -14 11 -22 20 -18 20 4 0 18 -9 32 -20z m-1231 -42 l29
-33 -32 29 c-18 17 -33 31 -33 33 0 8 8 1 36 -29z m1294 -8 c0 -5 -2 -10 -4
-10 -3 0 -8 5 -11 10 -3 6 -1 10 4 10 6 0 11 -4 11 -10z m2770 6 c0 -2 -8 -10
-17 -17 -16 -13 -17 -12 -4 4 13 16 21 21 21 13z m-2720 -51 c13 -14 21 -25
18 -25 -2 0 -15 11 -28 25 -13 14 -21 25 -18 25 2 0 15 -11 28 -25z m-1250
-50 l35 -40 -37 34 c-21 19 -38 39 -38 45 0 5 1 7 3 5 1 -2 18 -22 37 -44z
m1308 5 c7 -11 11 -20 9 -20 -2 0 -12 9 -22 20 -10 11 -14 20 -9 20 5 0 15 -9
22 -20z m2512 -10 c-14 -11 -29 -20 -35 -20 -5 0 4 9 20 20 38 25 48 25 15 0z
m-2469 -27 c13 -16 12 -17 -3 -4 -17 13 -22 21 -14 21 2 0 10 -8 17 -17z
m2419 3 c0 -2 -8 -10 -17 -17 -16 -13 -17 -12 -4 4 13 16 21 21 21 13z m-2375
-36 c3 -6 -1 -7 -9 -4 -18 7 -21 14 -7 14 6 0 13 -4 16 -10z m85 -67 c0 -7
-58 36 -66 49 -4 7 9 -1 29 -16 20 -16 37 -30 37 -33z m-1385 29 c-3 -3 -11 0
-18 7 -9 10 -8 11 6 5 10 -3 15 -9 12 -12z m3565 -6 c0 -2 -7 -7 -16 -10 -8
-3 -12 -2 -9 4 6 10 25 14 25 6z m-3539 -23 c13 -16 12 -17 -3 -4 -17 13 -22
21 -14 21 2 0 10 -8 17 -17z m3499 4 c0 -2 -10 -12 -22 -23 l-23 -19 19 23
c18 21 26 27 26 19z m-2105 -27 c10 -11 16 -20 13 -20 -3 0 -13 9 -23 20 -10
11 -16 20 -13 20 3 0 13 -9 23 -20z m-1360 -10 c3 -6 -1 -7 -9 -4 -18 7 -21
14 -7 14 6 0 13 -4 16 -10z m1421 -32 l19 -23 -25 20 c-14 11 -27 21 -29 22
-2 2 0 3 6 3 5 0 18 -10 29 -22z m1974 18 c0 -2 -8 -10 -17 -17 -16 -13 -17
-12 -4 4 13 16 21 21 21 13z m-3369 -23 c13 -16 12 -17 -3 -4 -17 13 -22 21
-14 21 2 0 10 -8 17 -17z m1499 -63 c17 -15 19 -18 5 -11 -11 6 -31 20 -45 31
-17 15 -19 18 -5 11 11 -6 31 -20 45 -31z m1765 10 c-3 -5 -16 -15 -28 -21
-19 -9 -19 -8 3 10 28 23 34 26 25 11z m-3165 -45 c14 -19 14 -19 -2 -6 -10 7
-18 18 -18 24 0 6 1 8 3 6 1 -2 9 -13 17 -24z m1464 -14 c-2 -3 -12 3 -22 13
-16 17 -16 18 5 5 12 -7 20 -15 17 -18z m1646 25 c0 -2 -7 -7 -16 -10 -8 -3
-12 -2 -9 4 6 10 25 14 25 6z m-40 -20 c0 -2 -7 -7 -16 -10 -8 -3 -12 -2 -9 4
6 10 25 14 25 6z m-1514 -57 c3 -6 -5 -3 -20 6 -14 10 -26 19 -26 22 0 7 39
-17 46 -28z m-1491 1 c10 -11 16 -20 13 -20 -3 0 -13 9 -23 20 -10 11 -16 20
-13 20 3 0 13 -9 23 -20z m2874 -3 c-2 -1 -13 -9 -24 -17 -19 -14 -19 -14 -6
3 7 9 18 17 24 17 6 0 8 -1 6 -3z m-2825 -43 c3 -8 2 -12 -4 -9 -6 3 -10 10
-10 16 0 14 7 11 14 -7z m1546 -4 c8 -5 11 -10 5 -10 -5 0 -17 5 -25 10 -8 5
-10 10 -5 10 6 0 17 -5 25 -10z m1130 -34 c0 -2 -8 -10 -17 -17 -16 -13 -17
-12 -4 4 13 16 21 21 21 13z m-973 -22 c-3 -3 -12 -4 -19 -1 -8 3 -5 6 6 6 11
1 17 -2 13 -5z m929 -13 c-3 -5 -16 -11 -28 -14 -22 -6 -22 -5 -4 8 22 17 40
20 32 6z m-2511 -41 c21 -22 37 -40 34 -40 -3 0 -23 18 -44 40 -21 22 -37 40
-34 40 3 0 23 -18 44 -40z m1785 -35 c14 -8 21 -14 15 -14 -5 0 -21 6 -35 14
-14 8 -20 14 -15 14 6 0 21 -6 35 -14z m570 -5 c-8 -5 -19 -10 -25 -10 -5 0
-3 5 5 10 8 5 20 10 25 10 6 0 3 -5 -5 -10z m-130 -44 c0 -2 -7 -7 -16 -10 -8
-3 -12 -2 -9 4 6 10 25 14 25 6z m-160 -16 c0 -5 -2 -10 -4 -10 -3 0 -8 5 -11
10 -3 6 -1 10 4 10 6 0 11 -4 11 -10z m55 0 c-3 -5 -14 -10 -23 -9 -14 0 -13
2 3 9 27 11 27 11 20 0z m58 3 c-7 -2 -19 -2 -25 0 -7 3 -2 5 12 5 14 0 19 -2
13 -5z m-1973 -100 c0 -8 -9 0 -50 45 l-45 47 48 -45 c26 -24 47 -45 47 -47z
m91 -80 l24 -26 -27 19 c-15 10 -28 22 -28 27 0 12 5 8 31 -20z m114 -105 l40
-43 -45 40 c-25 22 -47 41 -49 43 -2 1 0 2 5 2 6 0 28 -19 49 -42z m70 -66
c-3 -3 -11 0 -18 7 -9 10 -8 11 6 5 10 -3 15 -9 12 -12z m3920 -22 c-3 -5 -12
-10 -18 -10 -7 0 -6 4 3 10 19 12 23 12 15 0z m-3830 -60 c21 -22 37 -40 34
-40 -3 0 -23 18 -44 40 -21 22 -37 40 -34 40 3 0 23 -18 44 -40z m3760 20 c-3
-5 -12 -10 -18 -10 -7 0 -6 4 3 10 19 12 23 12 15 0z m-55 -25 c0 -2 -10 -9
-22 -15 -22 -11 -22 -10 -4 4 21 17 26 19 26 11z m-3646 -51 c3 -8 2 -12 -4
-9 -6 3 -10 10 -10 16 0 14 7 11 14 -7z m56 -49 c19 -19 32 -35 29 -35 -3 0
-20 16 -39 35 -19 19 -32 35 -29 35 3 0 20 -16 39 -35z m3470 31 c0 -2 -7 -7
-16 -10 -8 -3 -12 -2 -9 4 6 10 25 14 25 6z m-45 -26 c-3 -5 -12 -10 -18 -10
-7 0 -6 4 3 10 19 12 23 12 15 0z m-65 -34 c0 -3 -14 -11 -30 -20 -17 -8 -28
-10 -24 -5 3 6 16 14 28 19 26 11 26 11 26 6z m-3264 -58 l29 -33 -32 29 c-18
17 -33 31 -33 33 0 8 8 1 36 -29z m3124 -22 c0 -2 -7 -7 -16 -10 -8 -3 -12 -2
-9 4 6 10 25 14 25 6z m-3026 -62 c15 -14 27 -27 25 -29 -2 -2 -19 10 -37 26
-18 16 -29 29 -25 29 5 0 21 -12 37 -26z m2856 -29 c0 -2 -13 -11 -30 -20 -38
-19 -40 -11 -2 9 31 17 32 18 32 11z m-2799 -22 c13 -16 12 -17 -3 -4 -17 13
-22 21 -14 21 2 0 10 -8 17 -17z m2669 -48 c0 -2 -10 -9 -22 -15 -22 -11 -22
-10 -4 4 21 17 26 19 26 11z m-2585 -25 c10 -11 16 -20 13 -20 -3 0 -13 9 -23
20 -10 11 -16 20 -13 20 3 0 13 -9 23 -20z m2511 -22 c4 -7 4 -10 -1 -6 -4 4
-15 2 -24 -5 -14 -11 -14 -10 -2 6 16 20 18 21 27 5z m-2461 -18 c10 -11 16
-20 13 -20 -3 0 -13 9 -23 20 -10 11 -16 20 -13 20 3 0 13 -9 23 -20z m50 -40
c10 -11 16 -20 13 -20 -3 0 -13 9 -23 20 -10 11 -16 20 -13 20 3 0 13 -9 23
-20z m2305 6 c0 -2 -7 -7 -16 -10 -8 -3 -12 -2 -9 4 6 10 25 14 25 6z m-2255
-46 c10 -11 16 -20 13 -20 -3 0 -13 9 -23 20 -10 11 -16 20 -13 20 3 0 13 -9
23 -20z m2185 6 c0 -2 -7 -7 -16 -10 -8 -3 -12 -2 -9 4 6 10 25 14 25 6z m-45
-26 c-3 -5 -12 -10 -18 -10 -7 0 -6 4 3 10 19 12 23 12 15 0z m-70 -40 c-3 -5
-12 -10 -18 -10 -7 0 -6 4 3 10 19 12 23 12 15 0z m-1950 -30 c10 -11 16 -20
13 -20 -3 0 -13 9 -23 20 -10 11 -16 20 -13 20 3 0 13 -9 23 -20z m1865 -15
c-7 -8 -20 -15 -29 -15 -11 0 -8 5 9 14 33 19 35 19 20 1z m-1789 -42 c13 -16
12 -17 -3 -4 -17 13 -22 21 -14 21 2 0 10 -8 17 -17z m1709 3 c0 -2 -12 -11
-27 -20 l-28 -17 24 20 c23 21 31 25 31 17z m-70 -41 c0 -2 -10 -9 -22 -15
-22 -11 -22 -10 -4 4 21 17 26 19 26 11z m-1535 -35 c3 -6 -1 -7 -9 -4 -18 7
-21 14 -7 14 6 0 13 -4 16 -10z m36 -27 c13 -16 12 -17 -3 -4 -17 13 -22 21
-14 21 2 0 10 -8 17 -17z m90 -60 c13 -16 12 -17 -3 -4 -17 13 -22 21 -14 21
2 0 10 -8 17 -17z m1189 -8 c0 -2 -10 -9 -22 -15 -22 -11 -22 -10 -4 4 21 17
26 19 26 11z m-1095 -53 c-3 -3 -11 0 -18 7 -9 10 -8 11 6 5 10 -3 15 -9 12
-12z m36 -19 c13 -16 12 -17 -3 -4 -17 13 -22 21 -14 21 2 0 10 -8 17 -17z
m949 3 c0 -2 -7 -7 -16 -10 -8 -3 -12 -2 -9 4 6 10 25 14 25 6z m-835 -66 c3
-6 -1 -7 -9 -4 -18 7 -21 14 -7 14 6 0 13 -4 16 -10z m695 0 c0 -5 -5 -10 -11
-10 -5 0 -7 5 -4 10 3 6 8 10 11 10 2 0 4 -4 4 -10z m-655 -28 c-3 -3 -11 0
-18 7 -9 10 -8 11 6 5 10 -3 15 -9 12 -12z m70 -32 c3 -6 -1 -7 -9 -4 -18 7
-21 14 -7 14 6 0 13 -4 16 -10z m319 -55 c-10 -8 -26 -14 -34 -15 -8 0 -4 6
10 14 34 19 48 20 24 1z m-174 -27 c0 -6 -6 -5 -15 2 -8 7 -15 14 -15 16 0 2
7 1 15 -2 8 -4 15 -11 15 -16z m120 8 c0 -2 -7 -7 -16 -10 -8 -3 -12 -2 -9 4
6 10 25 14 25 6z m-50 -31 c-7 -8 -17 -15 -23 -15 -6 0 -2 7 9 15 25 19 30 19
14 0z m2783 -1506 c-6 -6 -9 -19 -5 -28 5 -13 3 -13 -13 2 -15 16 -16 20 -4
28 20 12 35 11 22 -2z m-123 -93 c0 -2 -8 -10 -17 -17 -16 -13 -17 -12 -4 4
13 16 21 21 21 13z m-450 -371 c-6 -8 -8 -20 -4 -27 5 -10 4 -10 -6 -1 -11 10
-11 15 0 28 7 8 15 15 17 15 3 0 0 -7 -7 -15z m365 -45 c-3 -5 -12 -10 -18
-10 -7 0 -6 4 3 10 19 12 23 12 15 0z m-4880 -1310 c-27 -12 -43 -12 -25 0 8
5 22 9 30 9 10 0 8 -3 -5 -9z m-144 -65 c-23 -14 -46 -25 -50 -25 -10 1 73 50
84 50 6 0 -10 -11 -34 -25z m-73 -66 c-3 -8 -7 -3 -11 10 -4 17 -3 21 5 13 5
-5 8 -16 6 -23z m10 -65 c-3 -27 -4 -26 -9 8 -3 22 -1 34 4 29 5 -5 7 -21 5
-37z m5 -79 c4 -8 3 -16 -1 -19 -4 -3 -9 4 -9 15 -2 23 3 25 10 4z m-6 -57
c-3 -8 -6 -5 -6 6 -1 11 2 17 5 13 3 -3 4 -12 1 -19z m9773 -72 c0 -2 -7 -7
-16 -10 -8 -3 -12 -2 -9 4 6 10 25 14 25 6z m-9773 -48 c-3 -7 -5 -2 -5 12 0
14 2 19 5 13 2 -7 2 -19 0 -25z m0 -80 c-3 -7 -5 -2 -5 12 0 14 2 19 5 13 2
-7 2 -19 0 -25z m-10 -225 c-2 -16 -4 -3 -4 27 0 30 2 43 4 28 2 -16 2 -40 0
-55z m-2 -73 c3 -5 1 -10 -4 -10 -6 0 -11 5 -11 10 0 6 2 10 4 10 3 0 8 -4 11
-10z m-8 -52 c-3 -7 -5 -2 -5 12 0 14 2 19 5 13 2 -7 2 -19 0 -25z m0 -50 c-3
-7 -5 -2 -5 12 0 14 2 19 5 13 2 -7 2 -19 0 -25z m-10 -40 c-3 -8 -6 -5 -6 6
-1 11 2 17 5 13 3 -3 4 -12 1 -19z m1 -44 c0 -17 -3 -22 -8 -13 -5 6 -6 18 -3
26 8 19 11 16 11 -13z m-11 -166 c-2 -13 -4 -3 -4 22 0 25 2 35 4 23 2 -13 2
-33 0 -45z m-10 -50 c-3 -8 -6 -5 -6 6 -1 11 2 17 5 13 3 -3 4 -12 1 -19z m0
-70 c-3 -8 -6 -5 -6 6 -1 11 2 17 5 13 3 -3 4 -12 1 -19z m-10 -80 c-3 -8 -6
-5 -6 6 -1 11 2 17 5 13 3 -3 4 -12 1 -19z m3 -63 c0 -8 -2 -15 -4 -15 -2 0
-6 7 -10 15 -3 8 -1 15 4 15 6 0 10 -7 10 -15z m-13 -67 c-3 -8 -6 -5 -6 6 -1
11 2 17 5 13 3 -3 4 -12 1 -19z m3 -34 c0 -8 -5 -12 -10 -9 -6 4 -8 11 -5 16
9 14 15 11 15 -7z m-13 -56 c-3 -8 -6 -5 -6 6 -1 11 2 17 5 13 3 -3 4 -12 1
-19z m0 -65 c-3 -10 -5 -2 -5 17 0 19 2 27 5 18 2 -10 2 -26 0 -35z m1533 -24
c0 -11 -4 -18 -10 -14 -5 3 -7 12 -3 20 7 21 13 19 13 -6z m-13 -81 c-3 -7 -5
-2 -5 12 0 14 2 19 5 13 2 -7 2 -19 0 -25z m-1527 -34 c0 -19 -4 -33 -8 -30
-8 5 -4 66 4 66 2 0 4 -16 4 -36z m1517 -6 c-3 -8 -6 -5 -6 6 -1 11 2 17 5 13
3 -3 4 -12 1 -19z m-1530 -160 c-3 -8 -6 -5 -6 6 -1 11 2 17 5 13 3 -3 4 -12
1 -19z m0 -80 c-2 -13 -4 -3 -4 22 0 25 2 35 4 23 2 -13 2 -33 0 -45z m1507 7
c3 -8 1 -15 -4 -15 -6 0 -10 7 -10 15 0 8 2 15 4 15 2 0 6 -7 10 -15z m-1507
-112 c-2 -16 -4 -3 -4 27 0 30 2 43 4 28 2 -16 2 -40 0 -55z m1512 -28 c0 -5
-4 -3 -9 5 -5 8 -9 22 -9 30 0 16 17 -16 18 -35z m-1512 -42 c-3 -10 -5 -4 -5
12 0 17 2 24 5 18 2 -7 2 -21 0 -30z m1552 -59 c13 -16 12 -16 -6 1 -12 11
-24 31 -27 45 l-6 25 13 -26 c6 -14 18 -35 26 -45z m-1552 -1 c-3 -10 -5 -4
-5 12 0 17 2 24 5 18 2 -7 2 -21 0 -30z m1621 -138 c-3 -3 -9 2 -12 12 -6 14
-5 15 5 6 7 -7 10 -15 7 -18z m-1614 -35 c-6 -6 -10 -3 -10 10 0 13 4 16 10
10 7 -7 7 -13 0 -20z m1630 4 c3 -8 2 -12 -4 -9 -6 3 -10 10 -10 16 0 14 7 11
14 -7z m24 -49 c-3 -3 -9 2 -12 12 -6 14 -5 15 5 6 7 -7 10 -15 7 -18z m-1649
-42 c0 -25 -1 -25 -8 -8 -5 11 -7 23 -4 28 8 14 13 7 12 -20z m1679 -28 c-3
-3 -9 2 -12 12 -6 14 -5 15 5 6 7 -7 10 -15 7 -18z m-1678 -15 c0 -5 -5 -10
-11 -10 -5 0 -7 5 -4 10 3 6 8 10 11 10 2 0 4 -4 4 -10z m1694 -16 c3 -8 2
-12 -4 -9 -6 3 -10 10 -10 16 0 14 7 11 14 -7z m-1697 -71 c-2 -16 -4 -5 -4
22 0 28 2 40 4 28 2 -13 2 -35 0 -50z m1713 7 c5 -19 6 -29 1 -24 -10 10 -26
72 -17 63 4 -4 11 -21 16 -39z m-1712 -102 l-1 -63 -6 55 c-4 30 -5 58 -3 63
9 19 12 2 10 -55z m1719 30 c-3 -8 -6 -5 -6 6 -1 11 2 17 5 13 3 -3 4 -12 1
-19z m23 -81 c0 -5 -4 -5 -10 -2 -5 3 -10 14 -10 23 0 15 2 15 10 2 5 -8 10
-19 10 -23z m-1743 -79 c-2 -13 -4 -3 -4 22 0 25 2 35 4 23 2 -13 2 -33 0 -45z
m1740 40 c-3 -8 -6 -5 -6 6 -1 11 2 17 5 13 3 -3 4 -12 1 -19z m10 -60 c1 -43
1 -43 -6 -8 -6 31 -5 50 3 50 1 0 3 -19 3 -42z m-1750 -60 c-3 -8 -6 -5 -6 6
-1 11 2 17 5 13 3 -3 4 -12 1 -19z m1760 -20 c-3 -8 -6 -5 -6 6 -1 11 2 17 5
13 3 -3 4 -12 1 -19z m-1747 -38 c0 -5 -5 -10 -11 -10 -5 0 -7 5 -4 10 3 6 8
10 11 10 2 0 4 -4 4 -10z m1770 -50 c5 -19 6 -29 1 -24 -10 10 -26 72 -17 63
4 -4 11 -21 16 -39z m-1773 -22 c-3 -7 -5 -2 -5 12 0 14 2 19 5 13 2 -7 2 -19
0 -25z m0 -50 c-3 -7 -5 -2 -5 12 0 14 2 19 5 13 2 -7 2 -19 0 -25z m1780 10
c-3 -8 -6 -5 -6 6 -1 11 2 17 5 13 3 -3 4 -12 1 -19z m-1772 -38 c3 -5 1 -10
-4 -10 -6 0 -11 5 -11 10 0 6 2 10 4 10 3 0 8 -4 11 -10z m1782 -32 c-3 -7 -5
-2 -5 12 0 14 2 19 5 13 2 -7 2 -19 0 -25z m-1778 -30 c0 -27 -2 -29 -8 -13
-5 11 -6 26 -4 33 8 21 13 13 12 -20z m1788 -35 c-3 -10 -5 -2 -5 17 0 19 2
27 5 18 2 -10 2 -26 0 -35z m-1779 -48 c-3 -3 -9 2 -12 12 -6 14 -5 15 5 6 7
-7 10 -15 7 -18z m-1 -72 c-3 -10 -5 -4 -5 12 0 17 2 24 5 18 2 -7 2 -21 0
-30z m1780 -95 c-3 -8 -6 -5 -6 6 -1 11 2 17 5 13 3 -3 4 -12 1 -19z m-1770
-30 c-3 -7 -5 -2 -5 12 0 14 2 19 5 13 2 -7 2 -19 0 -25z m1758 -63 c-4 -25
-9 -44 -12 -41 -2 2 -1 25 2 51 4 25 9 44 12 41 2 -2 1 -25 -2 -51z m-1748 -7
c-3 -7 -5 -2 -5 12 0 14 2 19 5 13 2 -7 2 -19 0 -25z m1730 -70 c-3 -8 -6 -5
-6 6 -1 11 2 17 5 13 3 -3 4 -12 1 -19z m-1717 2 c0 -5 -2 -10 -4 -10 -3 0 -8
5 -11 10 -3 6 -1 10 4 10 6 0 11 -4 11 -10z m1702 -72 c-6 -6 -7 0 -4 19 5 21
7 23 10 9 2 -10 0 -22 -6 -28z m-1695 -40 c-3 -8 -6 -5 -6 6 -1 11 2 17 5 13
3 -3 4 -12 1 -19z m1686 2 c-3 -12 -8 -19 -11 -16 -5 6 5 36 12 36 2 0 2 -9
-1 -20z m-1675 -76 l-3 -39 -5 47 c-3 26 -1 43 3 39 5 -5 7 -26 5 -47z m1642
-12 c0 -5 -7 -17 -15 -28 -14 -18 -14 -17 -4 9 12 27 19 34 19 19z m-1630 -64
c0 -23 -3 -29 -9 -19 -8 12 -4 51 5 51 2 0 4 -15 4 -32z m1576 -50 c-9 -12
-16 -19 -16 -15 0 11 24 47 28 42 2 -2 -3 -14 -12 -27z m-1566 2 c0 -5 -5 -10
-11 -10 -5 0 -7 5 -4 10 3 6 8 10 11 10 2 0 4 -4 4 -10z m-3 -42 c-3 -8 -6 -5
-6 6 -1 11 2 17 5 13 3 -3 4 -12 1 -19z m1563 8 c0 -3 -4 -8 -10 -11 -5 -3
-10 -1 -10 4 0 6 5 11 10 11 6 0 10 -2 10 -4z m-1553 -78 c-3 -8 -6 -5 -6 6
-1 11 2 17 5 13 3 -3 4 -12 1 -19z m1533 18 c0 -3 -4 -8 -10 -11 -5 -3 -10 -1
-10 4 0 6 5 11 10 11 6 0 10 -2 10 -4z m-23 -58 c-3 -7 -5 -2 -5 12 0 14 2 19
5 13 2 -7 2 -19 0 -25z m-1492 -43 c3 -27 4 -47 1 -44 -3 3 -8 23 -11 45 -3
21 -8 46 -11 54 -3 10 -2 12 4 5 6 -5 13 -32 17 -60z m1473 0 c-6 -14 -13 -23
-15 -21 -5 5 15 46 22 46 3 0 -1 -11 -7 -25z m-29 -74 c-6 -18 -13 -30 -15
-28 -2 2 1 18 7 36 6 18 13 30 15 28 2 -2 -1 -18 -7 -36z m-1432 -33 c-3 -8
-6 -5 -6 6 -1 11 2 17 5 13 3 -3 4 -12 1 -19z m10 -50 c-3 -7 -5 -2 -5 12 0
14 2 19 5 13 2 -7 2 -19 0 -25z m1385 -10 c-8 -8 -9 -4 -5 13 4 13 8 18 11 10
2 -7 -1 -18 -6 -23z m-1372 -57 c0 -32 -6 -24 -14 19 -4 25 -3 31 4 20 5 -8
10 -26 10 -39z m1364 24 c-4 -8 -8 -15 -10 -15 -2 0 -4 7 -4 15 0 8 4 15 10
15 5 0 7 -7 4 -15z m-16 -45 c-7 -10 -14 -17 -17 -15 -4 4 18 35 25 35 2 0 -1
-9 -8 -20z m12319 -2 c-3 -8 -6 -5 -6 6 -1 11 2 17 5 13 3 -3 4 -12 1 -19z
m10 -70 c-3 -7 -5 -2 -5 12 0 14 2 19 5 13 2 -7 2 -19 0 -25z m-13659 -3 c0
-30 -7 -28 -13 4 -2 11 0 21 4 21 5 0 9 -11 9 -25z m1309 -4 c-1 -17 -5 -27
-9 -23 -7 7 0 52 8 52 2 0 2 -13 1 -29z m-14 -61 c-3 -11 -7 -20 -9 -20 -2 0
-4 9 -4 20 0 11 4 20 9 20 5 0 7 -9 4 -20z m-1273 -4 c0 -3 -4 -8 -10 -11 -5
-3 -10 -1 -10 4 0 6 5 11 10 11 6 0 10 -2 10 -4z m13647 -48 c-3 -7 -5 -2 -5
12 0 14 2 19 5 13 2 -7 2 -19 0 -25z m-13650 -25 c-3 -10 -5 -2 -5 17 0 19 2
27 5 18 2 -10 2 -26 0 -35z m1254 28 c-6 -10 -7 -21 -4 -25 3 -3 1 -6 -5 -6
-7 0 -12 3 -12 6 0 9 20 44 26 44 2 0 0 -8 -5 -19z m-1243 -76 c-3 -3 -9 2
-12 12 -6 14 -5 15 5 6 7 -7 10 -15 7 -18z m1220 -16 c-6 -16 -12 -28 -14 -26
-5 5 13 57 20 57 3 0 0 -14 -6 -31z m-1203 -54 c9 -52 -1 -42 -14 14 -5 24 -6
39 -1 35 4 -5 11 -27 15 -49z m1166 -91 c-5 -21 -9 -30 -10 -19 -1 24 10 67
15 62 3 -2 0 -22 -5 -43z m-1141 -53 c0 -32 -6 -24 -14 19 -4 25 -3 31 4 20 5
-8 10 -26 10 -39z m1127 -21 c-5 -31 -17 -37 -15 -7 1 15 6 27 10 27 4 0 7 -9
5 -20z m-1119 -51 c-3 -8 -7 -3 -11 10 -4 17 -3 21 5 13 5 -5 8 -16 6 -23z m9
-71 c-2 -13 -4 -5 -4 17 -1 22 1 32 4 23 2 -10 2 -28 0 -40z m1094 10 c-3 -21
-6 -26 -9 -15 -3 17 3 47 11 47 2 0 1 -15 -2 -32z m-1084 -60 c-3 -8 -6 -5 -6
6 -1 11 2 17 5 13 3 -3 4 -12 1 -19z m1068 -28 c-9 -41 -17 -33 -9 9 4 17 9
30 11 27 3 -2 2 -19 -2 -36z m-1057 -31 c-3 -20 -5 -19 -9 9 -3 20 -2 29 4 23
5 -5 7 -19 5 -32z m12 -59 c0 -16 -2 -30 -4 -30 -2 0 -6 14 -8 30 -3 17 -1 30
4 30 4 0 8 -13 8 -30z m1030 1 c-5 -11 -10 -30 -10 -42 0 -12 -3 -20 -6 -16
-10 9 5 77 17 77 6 0 6 -7 -1 -19z m-1014 -93 c2 -18 6 -49 9 -68 3 -25 2 -29
-4 -15 -9 23 -22 130 -15 122 3 -3 7 -20 10 -39z m1004 -22 c0 -3 -4 -8 -10
-11 -5 -3 -10 -1 -10 4 0 6 5 11 10 11 6 0 10 -2 10 -4z m-19 -49 c-10 -9 -11
-8 -5 6 3 10 9 15 12 12 3 -3 0 -11 -7 -18z m-21 -57 c-5 -22 -8 -27 -9 -13
-1 21 9 56 14 51 2 -2 0 -19 -5 -38z m-943 -62 c-3 -7 -5 -2 -5 12 0 14 2 19
5 13 2 -7 2 -19 0 -25z m13567 16 c3 -8 2 -12 -4 -9 -6 3 -10 10 -10 16 0 14
7 11 14 -7z m-12643 -25 c-5 -13 -10 -19 -10 -12 -1 15 10 45 15 40 3 -2 0
-15 -5 -28z m-911 -31 c0 -12 -3 -18 -7 -14 -11 10 -12 36 -2 36 5 0 9 -10 9
-22z m899 -50 c-14 -62 -20 -70 -13 -18 4 25 8 48 11 53 10 16 10 5 2 -35z
m-889 -42 c0 -52 -6 -43 -13 18 -3 30 -1 43 4 35 5 -8 9 -32 9 -53z m880 -60
c0 -3 -4 -8 -10 -11 -5 -3 -10 -1 -10 4 0 6 5 11 10 11 6 0 10 -2 10 -4z m-19
-63 c-4 -28 -6 -32 -9 -15 -3 22 3 52 11 52 1 0 1 -17 -2 -37z m12737 12 c-3
-3 -9 2 -12 12 -6 14 -5 15 5 6 7 -7 10 -15 7 -18z m-13580 -40 c-3 -3 -9 2
-12 12 -6 14 -5 15 5 6 7 -7 10 -15 7 -18z m13602 -15 c0 -5 -2 -10 -4 -10 -3
0 -8 5 -11 10 -3 6 -1 10 4 10 6 0 11 -4 11 -10z m-12763 -32 c-3 -7 -5 -2 -5
12 0 14 2 19 5 13 2 -7 2 -19 0 -25z m12782 -53 c0 -5 -4 -3 -9 5 -5 8 -9 22
-9 30 0 16 17 -16 18 -35z m-13609 0 c0 -5 -5 -3 -10 5 -5 8 -10 20 -10 25 0
6 5 3 10 -5 5 -8 10 -19 10 -25z m827 13 c-3 -8 -6 -5 -6 6 -1 11 2 17 5 13 3
-3 4 -12 1 -19z m-6 -41 c-10 -9 -11 -8 -5 6 3 10 9 15 12 12 3 -3 0 -11 -7
-18z m-811 -28 c0 -11 -4 -18 -10 -14 -5 3 -7 12 -3 20 7 21 13 19 13 -6z
m812 -33 c-6 -48 -12 -46 -12 5 0 22 4 38 8 35 4 -3 6 -21 4 -40z m-825 -28
c-3 -7 -5 -2 -5 12 0 14 2 19 5 13 2 -7 2 -19 0 -25z m13656 -8 c3 -11 1 -18
-4 -14 -5 3 -9 12 -9 20 0 20 7 17 13 -6z m-13663 -87 c-11 -17 -11 -17 -6 0
3 10 7 33 8 50 l1 32 4 -32 c2 -18 -1 -41 -7 -50z m827 40 c-3 -10 -5 -4 -5
12 0 17 2 24 5 18 2 -7 2 -21 0 -30z m0 -55 c-3 -7 -5 -2 -5 12 0 14 2 19 5
13 2 -7 2 -19 0 -25z m-854 -48 c-9 -22 -18 -38 -20 -36 -5 5 24 76 31 76 2 0
-3 -18 -11 -40z m844 -47 c-2 -16 -4 -3 -4 27 0 30 2 43 4 28 2 -16 2 -40 0
-55z m-886 -60 c-12 -20 -14 -14 -5 12 4 9 9 14 11 11 3 -2 0 -13 -6 -23z
m13850 0 c13 -16 12 -17 -3 -4 -10 7 -18 15 -18 17 0 8 8 3 21 -13z m-12975
-39 c-3 -26 -8 -49 -11 -53 -4 -3 -4 8 -1 24 2 17 5 40 5 53 1 12 4 22 7 22 3
0 4 -21 0 -46z m-906 -32 c0 -5 -7 -17 -16 -28 -15 -18 -15 -18 -5 2 6 12 7
24 4 28 -3 3 -1 6 5 6 7 0 12 -4 12 -8z m-30 -55 c0 -2 -10 -12 -21 -23 -22
-19 -22 -19 -8 4 12 19 29 30 29 19z m14001 -14 c13 -16 12 -17 -3 -4 -10 7
-18 15 -18 17 0 8 8 3 21 -13z m-13076 -22 c3 -5 1 -12 -5 -16 -5 -3 -10 1
-10 9 0 18 6 21 15 7z m-984 -39 c-20 -29 -51 -59 -51 -50 0 6 63 78 68 78 2
0 -6 -13 -17 -28z m966 -44 c-3 -8 -6 -5 -6 6 -1 11 2 17 5 13 3 -3 4 -12 1
-19z m13151 -3 c-3 -3 -9 2 -12 12 -6 14 -5 15 5 6 7 -7 10 -15 7 -18z
m-14209 -38 c-44 -38 -116 -89 -144 -100 -22 -9 -15 0 13 17 51 30 129 86 141
100 7 9 16 16 20 16 3 0 -10 -15 -30 -33z m1048 -24 c-3 -10 -5 -2 -5 17 0 19
2 27 5 18 2 -10 2 -26 0 -35z m13193 7 c6 -11 8 -20 6 -20 -3 0 -10 9 -16 20
-6 11 -8 20 -6 20 3 0 10 -9 16 -20z m-13203 -52 c-3 -8 -6 -5 -6 6 -1 11 2
17 5 13 3 -3 4 -12 1 -19z m-1207 -42 c0 -2 -11 -11 -25 -20 -14 -9 -25 -13
-25 -8 0 5 10 14 23 20 27 13 27 13 27 8z m-110 -66 c-24 -19 -40 -25 -40 -15
0 5 51 34 60 34 3 0 -6 -8 -20 -19z m1314 -30 c-12 -10 -76 -31 -82 -26 -2 3
14 10 37 17 25 7 41 18 42 28 0 12 2 12 6 3 3 -8 1 -17 -3 -22z m-1394 -10 c0
-5 -5 -10 -11 -10 -5 0 -7 5 -4 10 3 6 8 10 11 10 2 0 4 -4 4 -10z m-30 -14
c0 -6 -141 -78 -145 -74 -3 3 133 77 143 78 1 0 2 -2 2 -4z m1327 -12 c-3 -3
-12 -4 -19 -1 -8 3 -5 6 6 6 11 1 17 -2 13 -5z m-83 -26 c-3 -5 -9 -6 -14 -3
-5 3 -20 1 -34 -5 -14 -5 -26 -7 -26 -4 0 7 43 22 62 21 9 -1 14 -5 12 -9z
m-221 -15 c-7 -2 -19 -2 -25 0 -7 3 -2 5 12 5 14 0 19 -2 13 -5z m77 3 c0 -2
-11 -6 -25 -8 -14 -3 -25 -1 -25 3 0 5 11 9 25 9 14 0 25 -2 25 -4z m53 -3
c-7 -2 -21 -2 -30 0 -10 3 -4 5 12 5 17 0 24 -2 18 -5z m-255 -10 c-10 -2 -26
-2 -35 0 -10 3 -2 5 17 5 19 0 27 -2 18 -5z m49 1 c-3 -3 -12 -4 -19 -1 -8 3
-5 6 6 6 11 1 17 -2 13 -5z m-170 -10 c-3 -3 -12 -4 -19 -1 -8 3 -5 6 6 6 11
1 17 -2 13 -5z m-951 -19 c-11 -8 -25 -15 -31 -15 -6 0 -20 -8 -31 -18 -19
-18 -88 -42 -71 -26 8 8 138 73 147 73 3 0 -4 -6 -14 -14z m789 5 c-3 -5 -12
-10 -18 -10 -7 0 -6 4 3 10 19 12 23 12 15 0z m58 3 c-7 -2 -21 -2 -30 0 -10
3 -4 5 12 5 17 0 24 -2 18 -5z m13410 -10 c-7 -2 -19 -2 -25 0 -7 3 -2 5 12 5
14 0 19 -2 13 -5z m500 0 c-7 -2 -19 -2 -25 0 -7 3 -2 5 12 5 14 0 19 -2 13
-5z m60 0 c-7 -2 -19 -2 -25 0 -7 3 -2 5 12 5 14 0 19 -2 13 -5z m-14126 -9
c-3 -3 -12 -4 -19 -1 -8 3 -5 6 6 6 11 1 17 -2 13 -5z m-37 -8 c0 -2 -13 -6
-29 -8 -17 -2 -28 -1 -25 4 5 8 54 12 54 4z m-75 -11 c-23 -8 -83 -10 -79 -3
3 4 24 8 47 7 23 0 38 -2 32 -4z m-138 -11 c-3 -3 -12 -4 -19 -1 -8 3 -5 6 6
6 11 1 17 -2 13 -5z m40 0 c-3 -3 -12 -4 -19 -1 -8 3 -5 6 6 6 11 1 17 -2 13
-5z m-337 -10 c0 -8 -19 -13 -24 -6 -3 5 1 9 9 9 8 0 15 -2 15 -3z m130 0 c0
-8 -19 -13 -24 -6 -3 5 1 9 9 9 8 0 15 -2 15 -3z m103 -1 c-7 -2 -21 -2 -30 0
-10 3 -4 5 12 5 17 0 24 -2 18 -5z"/>
</g>
</svg>
