<?xml version="1.0" standalone="no"?>
<!DOCTYPE svg PUBLIC "-//W3C//DTD SVG 20010904//EN"
 "http://www.w3.org/TR/2001/REC-SVG-20010904/DTD/svg10.dtd">
<svg version="1.0" xmlns="http://www.w3.org/2000/svg"
 width="1800.000000pt" height="2700.000000pt" viewBox="0 0 1800.000000 2700.000000"
 preserveAspectRatio="xMidYMid meet">
<metadata>
Created by potrace 1.13, written by Peter Selinger 2001-2015
</metadata>
<g transform="translate(0.000000,2700.000000) scale(0.100000,-0.100000)"
fill="#000000" stroke="none">
<path d="M10615 26561 c-22 -10 -49 -28 -60 -41 -32 -37 -139 -118 -314 -240
-179 -124 -212 -146 -461 -301 -91 -56 -181 -112 -200 -124 -19 -12 -104 -64
-189 -115 -203 -122 -371 -241 -566 -400 -206 -169 -332 -264 -475 -357 -490
-321 -598 -410 -805 -668 -180 -224 -265 -365 -265 -441 0 -30 -3 -35 -17 -29
-44 18 -100 17 -149 -3 -27 -11 -62 -23 -77 -27 -63 -13 -139 -69 -241 -176
-57 -60 -111 -109 -119 -109 -10 0 -27 -22 -42 -55 -17 -34 -42 -67 -68 -88
-261 -202 -565 -698 -517 -843 14 -41 81 -103 120 -111 17 -3 30 -8 30 -11 0
-3 -24 -49 -54 -101 -55 -98 -99 -195 -141 -311 -13 -36 -44 -119 -70 -185
-61 -157 -130 -366 -144 -435 -6 -30 -18 -91 -26 -135 -9 -44 -27 -127 -41
-185 -38 -160 -42 -179 -53 -260 -14 -96 -21 -846 -10 -965 10 -107 36 -272
61 -390 56 -260 207 -740 280 -891 126 -259 207 -406 266 -484 11 -14 27 -38
36 -55 19 -34 70 -105 133 -186 95 -124 385 -394 566 -526 20 -16 55 -41 76
-58 117 -91 302 -210 381 -245 25 -11 53 -25 63 -30 27 -16 340 -118 492 -160
195 -54 250 -64 430 -80 229 -20 522 -30 869 -30 192 0 347 -3 344 -6 -3 -3
-66 -21 -139 -41 -259 -68 -493 -153 -599 -217 -119 -72 -154 -86 -208 -79
-56 6 -16 21 -442 -167 -102 -45 -279 -122 -395 -170 -115 -48 -250 -106 -299
-129 -49 -22 -91 -41 -93 -41 -2 0 -2 9 2 20 28 87 -136 301 -310 406 -97 58
-170 82 -410 131 -83 17 -296 10 -415 -13 -114 -22 -392 -119 -452 -158 -94
-60 -282 -263 -413 -446 -33 -46 -80 -108 -105 -139 -58 -71 -91 -129 -121
-211 -20 -58 -23 -82 -23 -235 0 -306 39 -471 149 -624 37 -51 191 -196 253
-239 50 -34 191 -99 247 -113 25 -6 45 -15 45 -19 0 -23 -147 -118 -325 -210
-77 -40 -194 -106 -260 -147 -208 -130 -264 -144 -415 -105 -47 12 -102 25
-122 28 -29 4 -53 20 -100 65 -65 62 -168 138 -305 223 -308 194 -609 441
-897 737 -88 90 -243 248 -344 352 l-185 188 59 63 c92 99 125 148 157 232 28
75 29 87 29 225 -1 80 -6 158 -12 173 -5 15 -10 40 -10 56 0 40 -56 176 -94
228 -108 149 -269 323 -352 382 -62 44 -199 123 -289 168 -136 67 -274 93
-475 87 -382 -11 -506 -46 -743 -206 -206 -140 -384 -319 -496 -499 -15 -25
-50 -79 -76 -120 -63 -98 -124 -229 -169 -364 l-36 -109 0 -186 c0 -327 31
-486 137 -711 66 -138 106 -200 170 -261 61 -58 99 -81 199 -117 165 -61 202
-67 424 -67 204 0 206 0 305 32 55 18 131 51 169 73 37 22 72 38 76 35 4 -3
11 -17 15 -32 15 -63 209 -363 342 -528 94 -117 332 -375 429 -464 32 -30 106
-100 164 -155 58 -56 157 -149 220 -207 63 -58 171 -157 239 -220 500 -459
824 -720 1171 -939 291 -184 486 -260 590 -229 34 10 46 9 82 -7 31 -14 64
-19 123 -18 70 0 93 6 185 43 127 51 321 151 490 253 146 87 403 232 650 366
96 52 198 107 225 122 28 15 102 55 165 90 208 114 530 315 620 389 14 11 28
21 33 21 16 0 7 -259 -13 -362 -17 -86 -20 -145 -20 -356 -1 -229 1 -259 21
-325 20 -68 26 -77 107 -155 48 -45 94 -84 104 -87 14 -5 15 -19 11 -103 -5
-96 -5 -98 35 -187 l41 -90 7 -220 c7 -241 11 -260 68 -323 l37 -40 -68 -26
c-107 -41 -200 -98 -308 -188 -55 -46 -132 -105 -170 -132 -299 -212 -499
-381 -585 -494 -11 -15 -67 -33 -220 -71 -380 -93 -467 -105 -995 -131 -116
-5 -327 -23 -470 -40 -143 -16 -361 -41 -485 -55 -507 -57 -744 -96 -1090
-177 -118 -28 -286 -63 -374 -78 -185 -32 -200 -41 -201 -117 0 -28 -5 -48
-12 -51 -7 -2 -13 -16 -13 -30 -1 -70 -62 -145 -130 -158 -40 -9 -23 -20 43
-29 26 -4 47 -9 45 -11 -2 -2 -62 -15 -134 -30 -160 -32 -222 -53 -332 -113
-76 -42 -90 -54 -111 -95 -22 -44 -23 -52 -13 -97 11 -45 10 -53 -8 -77 -31
-43 -57 -131 -94 -321 -53 -269 -110 -682 -131 -956 -3 -44 -12 -150 -20 -235
-35 -390 -49 -1327 -26 -1693 21 -318 80 -857 122 -1102 23 -135 30 -173 43
-245 8 -41 27 -142 41 -225 76 -438 91 -533 126 -785 11 -80 26 -192 34 -250
8 -58 19 -124 25 -148 9 -38 8 -46 -14 -80 -56 -87 -164 -160 -406 -274 -80
-38 -153 -73 -163 -78 -10 -6 -77 -37 -150 -69 -164 -72 -308 -121 -457 -156
-63 -15 -131 -31 -150 -36 -39 -9 -45 -19 -141 -231 -37 -82 -49 -120 -49
-157 l0 -49 78 -6 c42 -4 174 -11 292 -16 118 -6 251 -15 295 -20 44 -6 150
-10 237 -10 87 0 231 -7 320 -15 253 -23 458 -22 613 4 95 15 195 23 370 27
211 5 251 9 330 30 219 59 320 92 349 115 52 41 79 134 56 194 -9 24 -6 31 29
65 32 31 44 55 64 122 51 173 74 331 87 583 17 346 31 456 78 615 11 36 23 90
26 120 4 30 15 102 25 160 11 58 24 137 30 175 13 92 45 234 70 315 11 36 27
106 36 155 16 86 49 198 65 220 4 6 17 44 29 85 13 41 42 125 66 185 67 170
82 221 110 371 25 128 27 154 22 319 -3 133 -10 205 -26 275 -12 52 -33 158
-46 235 -31 175 -38 205 -71 296 -40 114 -76 187 -160 326 l-77 128 6 175 c3
96 10 188 14 203 l9 29 34 -54 c81 -127 120 -158 199 -158 20 0 58 -7 85 -15
55 -17 85 -14 231 20 139 32 220 43 440 55 220 12 444 34 565 56 105 18 147
27 405 89 157 38 263 62 430 95 209 42 268 52 590 95 308 41 424 59 525 80 78
16 98 20 240 54 188 44 222 52 410 91 107 22 233 49 280 60 101 24 124 25 153
6 12 -8 51 -22 87 -31 103 -27 396 -15 976 41 137 13 260 24 271 24 14 0 24
-9 31 -29 14 -40 72 -120 167 -231 45 -52 119 -144 166 -205 88 -115 361 -397
514 -530 213 -186 280 -250 715 -680 217 -215 475 -461 574 -546 98 -84 208
-180 245 -212 185 -162 348 -248 524 -278 l73 -12 -7 -46 c-17 -105 71 -211
381 -464 102 -83 210 -174 242 -203 104 -95 214 -85 234 22 12 67 14 68 89 9
39 -29 95 -71 125 -92 30 -21 120 -97 200 -169 169 -154 204 -183 289 -244
328 -235 368 -273 570 -545 74 -99 161 -211 193 -250 32 -38 70 -94 85 -125
34 -72 74 -190 68 -201 -3 -4 -21 -13 -39 -19 -19 -6 -108 -47 -198 -92 -90
-44 -221 -104 -293 -133 -140 -57 -232 -101 -445 -212 -143 -75 -299 -139
-416 -173 -110 -31 -154 -86 -161 -200 -4 -56 -2 -70 19 -100 26 -38 118 -93
183 -109 22 -5 65 -17 95 -26 86 -26 522 -33 661 -11 108 18 160 24 439 50 91
9 233 22 315 31 83 8 219 17 304 20 121 4 173 11 242 30 71 20 111 25 206 25
68 0 143 6 178 15 33 8 74 14 91 15 52 0 119 37 174 94 70 73 74 79 104 181
21 73 26 110 26 195 -1 102 -16 194 -39 238 -12 22 -71 72 -87 72 -5 0 -17 17
-26 38 -10 20 -40 71 -67 113 -64 100 -101 172 -144 289 -39 105 -92 283 -102
345 -4 22 -16 76 -27 120 -37 148 -49 249 -58 495 -11 272 -21 377 -51 525
-49 246 -59 276 -157 461 -49 92 -96 166 -136 212 -33 39 -74 89 -91 112 -32
44 -206 187 -311 255 -104 67 -222 154 -277 203 -61 55 -111 88 -150 97 -20 5
-40 27 -72 76 -25 39 -45 72 -45 74 0 3 10 5 23 5 40 0 85 36 96 76 14 49 8
70 -51 190 -54 110 -47 102 -453 494 -213 206 -486 434 -960 805 -390 305
-566 456 -755 652 l-135 139 23 34 c41 61 46 105 24 190 -12 41 -24 98 -27
125 -4 28 -20 100 -36 160 -15 61 -33 142 -39 180 -6 39 -20 113 -30 165 -10
52 -24 124 -30 160 -20 116 -65 261 -180 585 -34 95 -49 229 -50 443 0 101
-11 136 -55 170 l-26 20 31 7 c57 12 95 61 125 160 59 193 70 285 67 563 -2
216 -5 263 -22 325 -11 39 -20 86 -20 103 0 28 4 32 36 37 39 7 96 45 119 81
29 44 127 347 201 621 9 33 22 78 29 100 33 107 44 146 94 350 16 66 50 192
76 280 26 88 51 174 55 191 4 18 10 36 13 42 10 15 66 325 87 475 19 138 85
361 155 524 65 152 72 166 125 278 27 55 66 141 88 190 22 50 57 126 78 170
34 70 39 91 42 167 6 127 -4 143 -228 367 -103 103 -216 211 -251 241 -35 29
-82 74 -104 100 -55 65 -128 127 -214 180 -39 25 -118 79 -174 120 -56 41
-142 102 -191 135 -83 55 -94 60 -145 60 -31 0 -60 3 -66 7 -23 14 -295 132
-360 155 -134 47 -201 76 -350 148 -82 40 -179 82 -215 94 -36 13 -114 42
-175 66 -60 24 -136 50 -167 59 -44 13 -59 22 -63 39 -19 80 -55 281 -55 304
0 21 7 31 28 40 15 7 65 35 111 62 82 49 128 66 411 152 159 49 217 73 313
133 40 24 131 76 202 116 159 88 276 169 465 322 151 122 178 150 357 366 112
135 163 217 163 265 0 15 6 29 13 31 6 2 33 11 59 19 l47 14 6 -27 c3 -16 29
-63 57 -106 27 -44 59 -92 69 -109 10 -16 74 -113 142 -215 68 -102 145 -224
171 -270 27 -47 57 -101 68 -120 70 -123 296 -387 397 -463 57 -43 92 -67 259
-173 51 -32 121 -78 155 -101 148 -99 234 -138 387 -174 78 -19 357 -17 435 3
142 37 225 61 305 89 47 17 107 37 133 45 60 19 113 71 151 148 15 33 53 93
84 135 200 269 292 421 292 481 0 11 -7 37 -17 58 -10 22 -15 57 -14 88 6 112
-39 148 -274 224 -258 84 -518 324 -698 646 -25 45 -49 94 -53 108 l-6 27 38
-16 c22 -10 64 -25 94 -35 30 -10 91 -30 135 -45 201 -68 206 -69 405 -67
l185 1 75 38 c69 35 77 43 110 103 19 36 48 94 63 130 16 36 52 108 82 160
198 353 349 704 396 922 14 69 6 108 -41 181 -22 35 -43 54 -76 69 -71 31
-137 19 -458 -81 -125 -39 -197 -51 -316 -51 -174 0 -313 37 -550 145 -69 32
-147 65 -173 75 -26 9 -58 26 -70 37 -48 44 -62 46 -246 39 -194 -8 -286 -22
-423 -66 -51 -17 -95 -30 -96 -30 -4 0 18 31 164 230 54 74 145 204 201 288
95 140 103 156 103 200 0 66 14 111 71 234 39 82 55 131 69 215 19 106 72 281
145 478 41 112 89 310 110 460 15 105 20 769 7 869 l-7 49 -100 -95 c-181
-173 -220 -208 -229 -208 -4 0 -5 11 -2 25 4 15 13 72 21 129 56 395 81 845
55 987 -6 37 -24 178 -38 315 l-27 249 -27 9 c-54 19 -105 -8 -192 -101 -142
-150 -336 -291 -560 -407 -60 -31 -111 -55 -112 -53 -2 2 12 32 30 68 55 103
126 275 167 404 21 65 37 120 36 121 -1 1 -42 -7 -92 -18 -111 -24 -333 -29
-455 -10 -47 7 -215 17 -375 22 -304 11 -399 19 -357 34 31 11 90 63 106 95
34 66 34 66 -59 110 -103 48 -250 143 -360 232 -104 85 -182 142 -221 162 -80
42 -305 116 -514 171 -72 19 -227 42 -420 62 -132 13 -191 14 -400 4 -301 -14
-612 -45 -711 -70 -148 -39 -167 -43 -182 -37 -9 3 -20 29 -27 60 -12 59 -8
84 34 229 65 226 158 720 140 749 -9 15 -66 10 -109 -10z m-3366 -3083 c59
-44 418 -227 536 -272 39 -15 79 -31 90 -36 11 -5 85 -35 165 -66 80 -31 172
-68 205 -83 33 -15 112 -49 175 -75 63 -27 133 -57 156 -67 23 -10 45 -19 49
-19 4 0 21 -6 38 -14 41 -18 195 -84 322 -136 55 -23 127 -54 160 -70 33 -15
139 -63 235 -106 240 -107 424 -203 773 -403 23 -13 62 -34 87 -47 91 -48 209
-114 257 -143 40 -25 187 -108 462 -262 25 -14 64 -36 86 -49 22 -13 64 -37
94 -54 29 -17 70 -41 90 -53 20 -12 53 -31 75 -43 21 -12 69 -41 107 -66 38
-24 72 -44 76 -44 3 0 21 -11 39 -25 18 -14 35 -25 39 -25 3 0 40 -23 83 -51
42 -28 86 -55 97 -60 11 -5 47 -27 80 -48 33 -22 114 -72 180 -112 66 -40 135
-83 153 -95 32 -22 32 -23 12 -34 -14 -7 -19 -17 -16 -27 5 -13 4 -13 -7 -4
-11 8 -19 6 -37 -9 -13 -11 -27 -20 -32 -20 -13 0 -346 -196 -364 -215 -9 -8
-20 -13 -25 -10 -5 4 -9 2 -9 -2 0 -5 -14 -14 -31 -20 -27 -11 -30 -15 -19
-28 7 -9 8 -15 2 -15 -6 0 -13 6 -15 13 -4 8 -8 8 -14 2 -4 -5 -13 -11 -20
-12 -6 -1 -27 -13 -46 -26 -19 -13 -49 -30 -67 -37 -18 -8 -29 -18 -26 -26 3
-8 0 -11 -9 -8 -19 8 -57 -15 -49 -28 4 -6 3 -8 -3 -5 -6 4 -20 -4 -33 -18
-12 -13 -28 -21 -35 -19 -7 3 -43 -12 -80 -33 l-66 -38 30 -13 c17 -6 31 -17
31 -23 0 -8 6 -7 17 2 14 12 16 12 8 0 -6 -11 -4 -13 8 -8 10 4 14 2 11 -7 -2
-7 17 -27 43 -46 26 -19 53 -38 58 -43 30 -24 179 -127 186 -127 4 0 14 -6 21
-13 18 -18 203 -133 308 -192 145 -81 231 -137 330 -212 52 -40 190 -138 307
-218 116 -79 235 -162 264 -184 30 -22 123 -75 209 -118 131 -66 277 -162 354
-234 12 -11 -11 -39 -32 -39 -8 0 -99 47 -201 103 -102 57 -244 135 -316 172
-71 38 -188 108 -260 156 -71 47 -190 124 -264 169 -74 45 -146 90 -160 100
-14 9 -87 53 -161 97 -74 44 -184 115 -245 158 -60 42 -180 119 -265 170 -85
51 -227 136 -315 190 -88 53 -216 129 -285 167 -69 39 -163 97 -210 128 -47
31 -148 93 -225 137 -77 44 -192 111 -255 150 -63 39 -153 91 -199 118 -46 26
-144 86 -217 134 -74 47 -194 124 -268 170 -74 46 -172 115 -218 154 -61 51
-124 89 -238 146 -85 43 -211 109 -280 148 -152 85 -244 130 -465 227 -93 41
-204 90 -245 109 -136 63 -217 97 -352 148 -73 27 -230 97 -348 154 -202 97
-679 295 -712 295 -8 0 -41 9 -74 21 -32 11 -81 24 -109 30 -62 11 -105 28
-105 41 0 23 88 177 149 262 85 117 126 182 146 229 8 20 21 37 28 37 7 0 67
53 133 119 132 132 173 161 224 161 19 0 64 14 100 29 36 16 69 29 74 30 5 1
34 -18 65 -41z m-626 -1185 c92 -48 155 -77 277 -129 72 -31 239 -116 340
-173 36 -21 85 -46 110 -56 72 -30 76 -37 33 -69 -21 -15 -77 -53 -124 -84
-138 -92 -171 -114 -234 -162 -33 -25 -78 -57 -100 -71 -123 -79 -163 -106
-191 -129 -41 -34 -171 -126 -214 -152 -19 -12 -49 -22 -65 -23 -45 -2 -83
-32 -96 -75 -10 -33 -9 -44 10 -84 25 -50 123 -151 173 -178 18 -10 44 -18 58
-18 l26 0 -4 -239 c-4 -206 -2 -243 12 -272 9 -17 16 -39 16 -48 0 -9 11 -38
25 -66 13 -27 25 -54 25 -58 0 -4 24 -45 53 -90 30 -45 73 -116 97 -157 54
-93 137 -176 214 -214 75 -38 193 -48 260 -22 108 41 206 206 241 406 49 283
53 363 18 391 -13 11 -19 9 -39 -16 -22 -28 -29 -30 -103 -33 -67 -3 -88 0
-125 17 -24 12 -50 29 -57 37 -7 8 -27 21 -46 29 -39 16 -53 47 -53 113 1 146
131 224 320 193 61 -10 66 -10 83 10 10 12 17 38 17 62 0 64 -67 274 -97 305
-16 17 -17 25 0 17 6 -4 3 1 -7 9 -11 9 -16 16 -10 16 5 0 0 7 -10 15 -11 8
-16 15 -10 15 5 0 2 5 -6 10 -13 8 -11 13 10 32 21 20 22 20 10 2 -8 -11 -2
-6 14 10 16 17 25 24 21 16 -5 -8 13 8 39 35 27 28 43 41 36 30 -8 -11 5 0 28
25 23 25 41 41 42 36 0 -6 7 -1 16 10 8 10 13 12 9 4 -4 -8 1 -6 10 5 9 11 21
19 26 17 6 -1 8 2 4 7 -3 6 6 18 20 27 34 22 58 68 65 126 l5 47 217 -107
c119 -59 231 -113 250 -121 95 -40 152 -71 366 -198 20 -12 51 -28 67 -36 17
-8 99 -53 184 -101 85 -47 156 -86 158 -86 6 0 314 -148 333 -160 8 -6 26 -15
40 -20 14 -6 57 -26 95 -45 67 -33 204 -96 235 -109 8 -3 22 -10 30 -16 8 -5
26 -15 40 -20 14 -6 61 -30 105 -55 44 -24 90 -49 103 -55 23 -10 161 -98 239
-151 23 -16 44 -29 48 -29 3 0 18 -8 33 -19 15 -10 52 -34 82 -54 30 -20 85
-57 122 -84 94 -67 308 -220 337 -241 14 -9 61 -44 105 -78 45 -33 110 -80
146 -104 88 -60 255 -187 372 -284 149 -124 153 -127 303 -221 26 -16 66 -45
89 -62 22 -18 46 -33 52 -33 7 0 14 -6 17 -13 3 -8 20 -22 39 -31 18 -9 51
-30 73 -47 38 -28 79 -57 135 -96 14 -10 66 -47 115 -83 50 -36 117 -83 150
-104 33 -22 76 -50 96 -63 19 -12 38 -23 42 -23 4 0 56 -29 115 -65 135 -82
121 -74 227 -136 50 -29 107 -63 128 -76 l38 -24 -43 -53 c-216 -269 -267
-326 -397 -435 -62 -53 -129 -106 -148 -119 -18 -12 -52 -41 -73 -64 -22 -22
-40 -36 -40 -32 0 5 -5 1 -11 -9 -6 -9 -14 -15 -20 -12 -5 4 -9 1 -9 -5 0 -6
-4 -8 -10 -5 -5 3 -10 1 -10 -5 0 -6 -4 -9 -9 -6 -5 3 -12 -1 -15 -10 -4 -9
-13 -14 -22 -10 -8 3 -12 2 -9 -4 3 -6 1 -10 -4 -10 -19 0 -25 -3 -45 -22 -10
-9 -23 -15 -28 -12 -4 3 -8 0 -8 -6 0 -6 -4 -8 -10 -5 -5 3 -10 1 -10 -6 0 -7
-3 -9 -7 -6 -3 4 -12 -1 -20 -11 -9 -10 -12 -11 -7 -2 4 8 -5 3 -20 -12 -16
-15 -32 -25 -37 -22 -5 3 -12 -2 -15 -10 -3 -9 -12 -16 -20 -16 -8 0 -14 -5
-14 -10 0 -6 -3 -9 -7 -8 -5 1 -21 -10 -37 -25 -16 -14 -32 -24 -37 -21 -5 3
-9 0 -9 -6 0 -6 -4 -8 -10 -5 -5 3 -10 1 -10 -5 0 -6 -4 -8 -10 -5 -5 3 -10 1
-10 -5 0 -7 -7 -10 -15 -6 -8 3 -15 1 -15 -5 0 -6 -7 -9 -15 -5 -8 3 -15 1
-15 -5 0 -6 -7 -9 -15 -5 -8 3 -15 1 -15 -5 0 -6 -4 -7 -10 -4 -5 3 -10 1 -10
-5 0 -7 -6 -10 -12 -8 -7 3 -19 -1 -26 -9 -8 -7 -18 -11 -23 -8 -5 4 -9 1 -9
-5 0 -6 -4 -8 -10 -5 -5 3 -10 1 -10 -5 0 -6 -4 -8 -10 -5 -5 3 -10 1 -10 -5
0 -6 -4 -8 -10 -5 -5 3 -10 1 -10 -4 0 -6 -3 -10 -7 -9 -5 1 -21 -4 -38 -11
-16 -7 -36 -14 -43 -15 -7 -1 -67 -38 -135 -83 -159 -104 -163 -106 -204 -98
-45 8 -118 -26 -138 -66 -23 -43 -33 -198 -21 -320 l3 -37 -31 10 c-17 5 -38
12 -46 15 -8 4 -20 5 -26 4 -7 -1 -25 4 -40 10 -16 7 -35 11 -43 10 -7 -1 -20
1 -30 5 -19 8 -59 16 -83 15 -10 0 -18 4 -18 9 0 5 -6 7 -13 4 -8 -3 -34 0
-58 6 -24 6 -51 12 -59 14 -8 1 -32 6 -52 10 -24 5 -58 3 -100 -8 -35 -8 -83
-15 -108 -15 -25 0 -76 -4 -115 -10 -112 -17 -108 -19 -80 42 15 31 25 70 25
98 0 64 -43 145 -99 184 -43 30 -43 30 -174 28 -816 -11 -951 -10 -1192 2
-378 21 -498 38 -700 103 -16 5 -59 18 -95 27 -110 30 -272 87 -325 113 -78
39 -240 149 -434 294 -221 166 -449 408 -595 633 -76 117 -85 131 -126 210
-125 236 -168 341 -257 620 -14 44 -38 118 -53 165 -49 146 -90 343 -114 540
-3 25 -6 227 -7 450 -1 377 0 413 20 525 12 66 27 149 32 185 5 36 13 85 18
110 6 25 17 86 26 135 17 93 53 230 85 325 81 241 148 424 206 560 25 58 49
115 54 128 5 12 14 22 20 22 5 0 52 -21 103 -47z m-4422 -5745 c46 -15 252
-133 319 -183 49 -36 226 -242 250 -291 22 -45 45 -237 33 -283 -3 -14 -46
-78 -95 -142 -99 -130 -138 -212 -138 -288 l0 -50 139 -138 c76 -76 196 -203
267 -283 374 -425 653 -687 1000 -937 279 -201 446 -296 589 -333 28 -7 73
-26 100 -41 96 -54 235 -101 315 -107 211 -15 311 9 513 125 131 76 261 145
303 161 16 7 58 30 94 52 36 22 76 45 90 52 14 7 29 18 33 25 4 7 15 13 22 13
8 0 15 5 15 10 0 6 7 10 15 10 8 0 15 4 15 8 0 12 146 112 154 105 3 -4 6 -1
6 5 0 7 7 12 15 12 8 0 15 5 15 10 0 6 7 10 15 10 8 0 15 4 15 9 0 5 14 14 31
21 17 7 36 18 42 25 20 19 137 96 137 90 0 -3 9 2 19 12 11 10 42 30 69 45
l49 28 88 -116 c48 -63 92 -120 99 -127 29 -30 180 -223 261 -332 125 -170
225 -294 246 -306 10 -5 32 -9 49 -9 28 0 34 -5 56 -55 14 -30 29 -55 33 -55
4 0 27 13 52 28 51 32 119 65 124 60 2 -2 10 -31 18 -65 10 -46 11 -65 3 -72
-14 -12 -186 -111 -192 -111 -2 0 -21 -11 -42 -24 -38 -24 -604 -339 -747
-416 -151 -81 -181 -97 -480 -264 -165 -92 -353 -199 -418 -237 -222 -130
-372 -202 -532 -258 -33 -12 -73 -31 -89 -42 l-28 -21 -28 20 c-15 12 -92 55
-171 98 -369 197 -756 474 -1144 819 -103 91 -359 326 -520 476 -38 36 -108
100 -155 144 -47 43 -184 175 -304 294 -196 194 -305 311 -599 646 -49 55
-110 118 -137 140 -27 22 -70 66 -95 97 -26 32 -57 61 -71 64 -42 11 -154 -2
-233 -26 -68 -20 -90 -21 -265 -18 -183 4 -195 5 -289 37 -74 24 -106 41 -134
68 -48 48 -115 195 -150 330 -27 103 -28 119 -28 328 l0 220 38 100 c64 167
87 202 298 454 103 123 174 186 309 273 134 86 185 106 300 118 116 13 377 5
431 -12z m8367 -9 c36 -13 91 -22 152 -25 213 -10 256 -12 280 -18 14 -3 34
-8 45 -11 148 -32 360 -92 405 -115 31 -16 86 -38 121 -50 35 -12 127 -45 204
-75 77 -30 201 -77 275 -104 254 -93 455 -183 591 -266 52 -31 130 -75 174
-97 56 -28 105 -64 163 -119 45 -43 126 -107 180 -142 63 -42 111 -83 137
-117 22 -28 47 -56 56 -60 9 -5 34 -35 55 -67 21 -31 105 -123 188 -204 l150
-146 -36 -74 c-20 -41 -48 -101 -63 -134 -15 -33 -48 -103 -72 -155 -45 -95
-65 -139 -104 -227 -11 -27 -24 -55 -29 -64 -8 -15 -48 -120 -85 -219 -34 -92
-78 -274 -102 -415 -8 -49 -19 -112 -24 -140 -5 -27 -14 -83 -19 -124 -12 -82
-27 -140 -65 -251 -14 -41 -34 -106 -45 -145 -11 -38 -28 -101 -40 -140 -11
-38 -27 -99 -35 -135 -38 -155 -67 -267 -77 -290 -6 -14 -14 -41 -18 -60 -5
-19 -13 -48 -19 -65 -5 -16 -22 -75 -37 -130 -15 -55 -32 -118 -39 -140 -7
-22 -21 -67 -30 -100 -10 -33 -23 -76 -30 -95 -35 -100 -45 -139 -45 -182 l0
-48 -73 0 c-40 0 -142 4 -227 10 -85 5 -306 14 -490 20 -347 10 -475 22 -620
59 -57 14 -160 26 -310 36 -124 8 -322 22 -440 30 -118 9 -375 19 -570 23
-423 8 -1697 7 -1791 -2 l-67 -7 -20 61 c-15 42 -38 80 -78 126 l-57 65 -5
211 c-3 150 -1 236 9 297 8 52 13 153 12 256 -2 152 0 175 19 222 l21 52 -36
111 -37 110 21 40 c20 37 20 42 5 64 -8 14 -26 26 -38 28 -20 3 -26 15 -45 88
-13 47 -27 116 -32 154 -11 76 -27 100 -97 141 -41 24 -41 25 -46 92 -7 86
-23 120 -63 134 l-31 12 4 87 c6 118 -7 156 -62 179 -35 15 -112 31 -166 34
-8 0 -47 -3 -86 -7 l-70 -7 -96 163 c-141 241 -175 314 -263 574 l-48 141 46
42 c46 43 159 129 277 213 121 86 328 189 678 337 79 34 145 61 147 61 7 0
219 91 291 125 39 18 131 59 205 90 221 95 255 112 280 143 15 18 44 36 74 45
60 20 260 62 331 71 29 4 87 16 130 27 78 20 155 37 464 98 184 37 331 68 420
88 168 38 285 42 368 12z m-2338 -5916 c30 -11 75 -26 100 -33 25 -7 56 -16
70 -20 145 -45 267 -67 415 -75 55 -2 111 -7 125 -9 14 -3 48 -7 75 -11 28 -3
68 -10 90 -15 102 -22 156 -30 230 -36 44 -3 116 -12 160 -20 186 -32 395 -63
460 -68 67 -5 237 -22 320 -31 22 -2 72 -9 110 -14 39 -6 133 -11 210 -11 77
0 167 -5 200 -10 33 -6 213 -13 400 -15 187 -3 495 -8 685 -11 190 -4 399 -8
465 -9 66 -1 146 -3 178 -4 l59 -1 -26 -30 c-20 -25 -45 -106 -39 -130 1 -3
-10 -7 -23 -8 -14 -1 -23 2 -20 7 3 5 -1 11 -9 15 -8 3 -17 1 -20 -4 -8 -13
-55 -5 -67 11 -7 10 -7 7 -3 -9 6 -22 5 -23 -14 -13 -12 7 -21 8 -21 3 0 -5
-6 -9 -12 -9 -7 0 -51 -23 -98 -51 -83 -49 -114 -57 -89 -24 7 10 1 6 -13 -8
-14 -14 -23 -29 -20 -34 3 -5 0 -6 -7 -2 -6 4 -9 12 -6 17 4 5 1 9 -5 9 -6 0
-9 4 -5 9 9 16 -12 22 -24 7 -10 -11 -8 -15 5 -18 16 -3 16 -4 -1 -18 -11 -8
-16 -10 -12 -4 4 7 -2 14 -15 18 -22 5 -22 6 -4 19 12 9 15 16 8 21 -6 3 -13
2 -17 -4 -8 -13 -65 -13 -65 0 0 6 -5 10 -10 10 -7 0 -7 -7 1 -21 8 -15 8 -19
0 -15 -6 4 -11 2 -11 -3 0 -6 -4 -11 -9 -11 -4 0 -6 11 -3 25 3 19 1 24 -11
20 -8 -4 -17 1 -21 11 -5 12 -9 14 -20 5 -7 -6 -22 -8 -32 -5 -17 6 -17 5 1
-10 11 -10 14 -15 8 -11 -7 3 -13 0 -13 -7 0 -11 -2 -11 -8 0 -11 17 -35 7
-145 -57 -48 -29 -92 -49 -97 -46 -6 3 -10 1 -10 -4 0 -6 -4 -11 -9 -11 -5 0
-7 9 -4 20 3 11 0 20 -6 20 -6 0 -11 -7 -11 -16 0 -8 -4 -13 -9 -10 -5 4 -22
1 -37 -4 -28 -11 -28 -11 -10 9 10 11 22 18 26 16 4 -3 14 3 21 13 13 15 12
16 -3 4 -13 -10 -17 -10 -21 0 -3 9 -9 7 -22 -7 -9 -11 -13 -14 -10 -7 4 8
-27 -5 -69 -27 -42 -23 -76 -37 -76 -31 0 7 -6 8 -19 0 -24 -12 -34 -13 -27
-1 3 5 -1 12 -10 15 -8 3 -13 2 -10 -3 3 -5 -1 -11 -9 -15 -10 -4 -15 1 -15
15 0 20 0 20 -22 -1 -12 -11 -24 -18 -27 -15 -2 3 4 12 15 19 16 12 16 14 3
12 -10 -1 -25 -8 -34 -16 -16 -14 -17 -13 -11 8 9 29 -2 29 -14 0 l-9 -23 -7
23 c-3 12 -11 22 -16 22 -5 0 -7 -4 -3 -9 3 -6 -6 -6 -25 -1 -21 6 -30 5 -30
-3 0 -8 -3 -8 -11 0 -14 14 -2 36 14 27 7 -4 7 -1 -1 7 -11 12 -15 11 -23 -4
-6 -9 -14 -15 -19 -12 -5 3 -12 0 -16 -6 -5 -8 -3 -9 6 -4 8 5 11 3 8 -5 -2
-7 -12 -14 -21 -16 -9 -1 -15 2 -11 7 3 5 1 9 -4 9 -6 0 -9 7 -8 16 0 9 -7 18
-17 20 -14 2 -17 -2 -12 -14 5 -13 4 -14 -6 -5 -8 8 -18 9 -31 2 -10 -5 -18
-7 -18 -4 0 4 -6 3 -12 -2 -7 -4 -17 -8 -23 -9 -5 -1 -49 -24 -96 -50 -88 -51
-115 -62 -104 -44 3 5 4 10 0 10 -3 0 -10 -10 -15 -22 -7 -19 -9 -20 -9 -5 -1
10 -7 17 -13 14 -7 -2 -18 3 -25 12 -11 14 -12 14 -13 1 0 -9 6 -22 13 -29 10
-11 9 -12 -1 -6 -7 4 -17 17 -22 29 -4 13 -15 23 -24 23 -8 0 -13 -4 -10 -9 3
-5 10 -5 16 -2 7 4 8 2 4 -5 -11 -17 -39 7 -31 27 4 12 3 12 -9 3 -11 -9 -15
-9 -19 1 -4 8 -6 7 -6 -4 -1 -23 -21 -24 -21 -2 0 14 -3 14 -15 4 -15 -12 -34
-4 -58 25 -5 6 -5 0 -2 -13 4 -12 3 -22 -2 -21 -4 1 -15 1 -23 0 -13 -1 -13
-2 0 -12 13 -9 13 -10 0 -6 -8 2 -14 11 -14 20 1 9 -5 18 -13 21 -8 3 -11 1
-8 -4 3 -6 1 -10 -4 -10 -6 0 -11 10 -11 23 0 13 -3 17 -8 11 -4 -6 -15 -10
-24 -9 -9 2 -26 -6 -37 -16 -12 -11 -21 -17 -21 -13 0 3 -11 -1 -23 -9 -56
-36 -190 -107 -195 -102 -3 3 1 5 9 5 11 0 11 2 -1 10 -22 14 -28 12 -34 -8
-4 -10 -13 -19 -21 -19 -11 0 -12 4 -4 14 9 9 8 13 0 13 -7 0 -10 4 -6 9 3 5
1 12 -5 16 -5 3 -10 1 -10 -4 0 -6 -8 -12 -17 -12 -17 -1 -17 -2 0 -6 9 -2 17
-9 17 -13 0 -6 -11 -6 -25 0 -14 5 -25 7 -25 4 0 -2 -10 1 -22 7 l-21 12 24
13 c23 13 23 14 2 11 -12 -2 -25 -6 -29 -9 -3 -4 -17 -4 -31 -2 -15 3 -22 1
-18 -6 4 -6 -1 -9 -12 -7 -29 4 -43 17 -43 38 0 25 -8 24 -31 -3 -11 -11 -19
-17 -19 -11 0 15 -63 6 -75 -11 -7 -9 -15 -13 -18 -10 -3 3 -37 -13 -76 -36
-40 -24 -75 -39 -82 -34 -7 4 -9 3 -5 -4 3 -6 -2 -16 -13 -21 -26 -15 -31 -14
-25 4 7 17 -21 21 -31 5 -3 -5 -1 -10 5 -10 17 0 6 -23 -12 -26 -11 -1 -15 4
-14 14 2 10 -5 26 -16 37 -14 14 -19 16 -16 5 2 -8 6 -17 9 -20 4 -3 0 -11 -8
-19 -12 -11 -14 -10 -11 5 2 12 -3 19 -12 19 -11 0 -14 -9 -13 -30 2 -27 2
-28 -7 -7 -11 27 -11 27 -40 2 -12 -11 -27 -17 -31 -14 -5 3 -9 0 -9 -5 0 -6
-7 -11 -15 -11 -8 0 -24 -9 -35 -20 -11 -11 -23 -20 -27 -20 -5 0 -16 -3 -26
-6 -15 -5 -16 -8 -5 -22 11 -15 11 -15 -2 -7 -8 6 -32 10 -52 9 -21 0 -38 3
-38 8 0 5 -8 4 -19 -1 -10 -6 -21 -8 -24 -4 -4 3 -14 0 -24 -8 -11 -9 -14 -10
-9 -1 12 20 -1 14 -90 -38 -47 -28 -90 -48 -95 -45 -5 4 -12 -1 -15 -9 -3 -9
-10 -16 -16 -16 -5 0 -6 6 -2 13 4 6 -2 4 -13 -5 -22 -20 -33 -23 -33 -7 0 5
6 7 13 3 9 -6 9 -5 0 8 -7 8 -10 18 -6 21 3 4 1 7 -6 7 -8 0 -11 -7 -7 -15 3
-9 0 -15 -9 -15 -8 0 -15 -6 -15 -12 0 -7 -6 -2 -13 12 -11 21 -11 26 2 32 14
6 14 7 0 7 -23 1 -31 -10 -17 -26 6 -7 7 -17 3 -21 -4 -4 -10 -1 -12 6 -3 6
-9 10 -14 7 -5 -4 -6 0 -3 8 3 8 -2 17 -11 21 -10 3 -14 2 -10 -5 4 -6 1 -9
-6 -8 -8 2 -24 -2 -37 -9 -12 -7 -22 -9 -21 -5 5 27 -2 32 -26 21 -14 -6 -25
-15 -25 -20 0 -4 -5 -8 -11 -8 -6 0 -49 -23 -96 -50 -82 -48 -87 -50 -105 -33
-15 14 -21 15 -27 4 -6 -9 -10 -10 -15 -2 -4 6 -12 9 -17 5 -5 -3 -7 -10 -4
-15 4 -5 2 -9 -4 -9 -5 0 -12 8 -14 18 -3 12 -5 9 -6 -8 -2 -25 -2 -25 -11 -2
-5 12 -14 22 -20 22 -6 0 -8 -4 -5 -10 3 -6 -1 -7 -9 -4 -11 4 -16 0 -16 -11
0 -10 5 -13 12 -9 7 4 8 3 4 -5 -10 -15 -26 -5 -27 17 0 12 -2 13 -6 4 -4 -10
-12 -7 -30 10 -16 14 -24 17 -21 8 5 -15 -20 -67 -85 -175 -21 -37 -40 -85
-47 -124 -6 -35 -19 -85 -29 -110 -10 -25 -16 -52 -14 -58 4 -11 48 -51 173
-156 14 -12 126 -100 250 -196 124 -96 227 -177 230 -180 3 -3 43 -40 90 -81
47 -41 96 -86 110 -98 14 -13 50 -42 80 -65 185 -140 462 -362 470 -377 6 -10
10 -30 10 -44 0 -25 -2 -26 -65 -26 -73 0 -75 1 -292 143 -73 48 -134 87 -137
87 -2 0 -60 35 -128 77 -146 90 -443 261 -478 275 -39 15 -136 76 -265 168
-66 47 -161 109 -212 139 -118 69 -153 101 -153 140 0 33 5 48 86 251 29 74
71 185 92 245 22 61 52 139 68 175 22 52 28 81 29 147 1 82 1 85 68 212 73
141 141 306 221 531 l51 145 0 137 c0 136 0 137 20 119 11 -9 45 -26 75 -38z
m-277 -243 c-3 -11 -9 -20 -14 -20 -5 0 -9 -5 -9 -10 0 -6 -16 -43 -35 -83
-18 -39 -57 -128 -85 -197 -29 -69 -57 -137 -63 -151 -12 -29 6 -28 -241 -14
l-130 8 35 28 c386 314 490 402 515 437 19 27 34 29 27 2z m-253 -627 c0 -42
-44 -129 -93 -184 l-52 -58 -75 -6 c-41 -3 -156 -26 -255 -50 -372 -92 -835
-179 -1027 -195 -73 -6 -178 -18 -233 -25 -55 -8 -179 -22 -275 -30 -96 -9
-238 -25 -315 -35 -77 -11 -194 -24 -260 -29 -66 -6 -188 -23 -270 -40 -83
-16 -200 -35 -260 -41 -61 -6 -180 -20 -265 -31 -127 -17 -198 -20 -395 -17
l-240 3 -49 29 c-27 16 -81 37 -120 46 l-71 16 32 17 c41 22 186 57 235 57 20
0 49 5 65 11 26 10 150 30 583 94 91 13 269 36 395 50 127 14 307 37 400 51
278 40 413 53 745 69 372 17 621 54 883 130 233 67 409 104 539 115 213 17
220 18 293 43 87 31 85 31 85 10z m-4710 -1288 c237 -371 707 -1007 1032
-1398 54 -65 98 -119 98 -122 0 -2 -9 -50 -19 -107 -30 -159 -32 -173 -41
-287 -10 -127 3 -195 56 -282 19 -31 34 -59 34 -62 0 -4 20 -47 44 -97 25 -49
43 -90 40 -90 -2 0 2 -10 11 -23 19 -29 50 -171 69 -320 8 -62 25 -157 36
-212 56 -261 28 -552 -73 -780 -21 -49 -54 -133 -72 -185 -18 -52 -51 -140
-73 -195 -42 -107 -51 -132 -111 -350 -53 -189 -84 -337 -116 -543 -15 -95
-38 -212 -52 -260 -37 -135 -61 -302 -68 -472 -10 -268 -23 -390 -67 -650 -7
-41 -13 -106 -13 -144 l0 -69 -35 -12 c-126 -43 -260 -65 -475 -75 -121 -6
-263 -18 -315 -26 -52 -8 -142 -21 -200 -30 -85 -13 -682 -36 -699 -27 -2 1
65 36 147 77 556 277 661 364 759 625 13 36 32 84 43 106 37 81 34 181 -15
545 -14 107 -24 173 -60 405 -13 83 -54 322 -75 440 -27 147 -68 387 -95 560
-51 314 -111 935 -119 1225 -20 726 -17 1065 14 1400 12 126 33 397 60 772 9
120 13 542 7 636 -2 33 0 35 93 83 52 27 113 52 135 57 37 8 41 6 55 -18 8
-14 35 -57 60 -95z m12932 -3542 c31 -27 72 -61 92 -76 20 -15 54 -52 75 -81
22 -29 61 -78 88 -109 47 -54 163 -270 179 -332 4 -16 8 -32 9 -35 0 -3 5 -23
10 -45 9 -44 9 -43 18 -65 3 -8 5 -22 6 -30 0 -8 3 -33 6 -55 11 -83 16 -210
24 -560 7 -302 10 -366 25 -399 9 -22 14 -41 11 -44 -3 -3 -1 -10 4 -16 8 -10
17 -49 26 -116 2 -14 4 -25 5 -25 1 0 3 -7 5 -15 1 -8 10 -39 19 -69 9 -30 14
-57 11 -59 -3 -3 0 -10 5 -17 5 -6 12 -22 14 -36 3 -13 5 -25 5 -26 1 -2 1 -6
2 -10 0 -5 4 -12 9 -18 8 -10 57 -157 64 -191 6 -25 130 -250 150 -270 9 -8
16 -22 16 -30 0 -8 5 -14 10 -14 6 0 10 -6 10 -13 0 -7 11 -28 25 -47 13 -18
22 -36 20 -41 -3 -4 -2 -9 2 -11 5 -1 19 -25 33 -51 14 -27 37 -55 53 -63 24
-13 27 -20 27 -67 0 -53 -24 -152 -41 -174 -6 -7 -33 -10 -72 -8 -267 15 -397
16 -452 6 -33 -7 -145 -14 -250 -17 -104 -3 -206 -10 -225 -15 -19 -5 -128
-16 -242 -24 -114 -8 -238 -19 -275 -24 -190 -27 -343 -42 -386 -39 l-48 3 63
41 c65 43 204 115 296 155 30 12 97 46 150 76 53 29 180 95 282 146 156 78
193 100 237 147 30 31 58 70 63 90 22 78 6 190 -49 337 -47 125 -87 194 -172
293 -25 30 -92 116 -148 190 -245 324 -317 395 -585 584 -261 183 -426 306
-426 318 0 4 55 51 123 105 380 301 685 563 887 760 74 73 140 132 146 133 6
0 36 -21 66 -47z"/>
<path d="M945 15628 c-11 -57 -12 -165 -4 -258 7 -86 37 -250 48 -265 8 -12
46 -108 56 -144 15 -50 68 -107 145 -156 65 -42 92 -53 157 -64 43 -7 101 -17
130 -22 28 -6 156 -9 285 -8 154 1 243 -2 261 -10 41 -16 52 -14 86 15 21 17
36 44 47 82 15 52 15 58 -1 88 -21 40 -35 44 -160 44 -175 2 -367 45 -511 115
-59 29 -94 58 -224 190 -85 85 -160 155 -167 155 -7 0 -13 9 -13 21 0 11 -10
34 -21 51 -12 16 -38 68 -59 114 -21 47 -40 87 -42 90 -3 2 -9 -15 -13 -38z"/>
<path d="M10450 15574 c-14 -2 -68 -12 -120 -20 -52 -9 -148 -33 -212 -54
-262 -86 -454 -205 -654 -404 -240 -241 -380 -499 -456 -841 -19 -87 -22 -130
-22 -325 0 -249 12 -332 75 -522 199 -595 710 -1022 1333 -1114 151 -22 428
-15 571 16 655 140 1143 630 1287 1293 30 139 33 493 5 632 -69 339 -218 618
-461 861 -194 193 -378 309 -633 398 -169 58 -291 78 -503 82 -102 1 -196 0
-210 -2z m317 -611 c4 -10 19 -36 34 -58 15 -23 43 -74 62 -115 45 -100 214
-349 293 -433 122 -129 165 -265 171 -542 3 -124 0 -187 -11 -235 l-14 -65 -1
90 c-2 126 -25 280 -48 312 -10 14 -22 33 -28 42 -5 9 -35 39 -65 66 -103 94
-262 270 -312 348 -28 42 -53 75 -55 73 -3 -3 -7 -240 -10 -528 l-6 -523 -32
-50 c-45 -71 -106 -121 -231 -190 l-109 -60 -115 1 c-81 1 -128 6 -160 18
-180 67 -245 243 -158 425 44 94 242 253 355 286 65 19 214 22 283 6 25 -6 50
-11 56 -11 6 0 18 34 28 75 16 66 17 128 16 567 -1 271 -1 499 -1 506 1 19 51
15 58 -5z"/>
</g>
</svg>
